<svg width="24" height="24" viewBox="0 0 24 24" fill="none" xmlns="http://www.w3.org/2000/svg">
<g id="arrows / circles / retry">
<path id="Combined Shape" fill-rule="evenodd" clip-rule="evenodd" d="M19 3C19.5523 3 20 3.44772 20 4V10H18H14C13.4477 10 13 9.55228 13 9C13 8.44772 13.4477 8 14 8H16.9392C15.7723 6.75055 14.09 6 12.2672 6C8.79771 6 6 8.69485 6 12C6 15.3052 8.79771 18 12.2672 18C14.8478 18 17.1298 16.4941 18.079 14.25C18.2941 13.7413 18.8809 13.5034 19.3896 13.7185C19.8982 13.9337 20.1361 14.5204 19.921 15.0291C18.6582 18.0147 15.6497 20 12.2672 20C7.70955 20 4 16.4268 4 12C4 7.57317 7.70955 4 12.2672 4C14.4513 4 16.489 4.82729 18 6.23456V4C18 3.44772 18.4477 3 19 3Z" fill="black"/>
</g>
</svg>
