<svg width="96" height="96" viewBox="0 0 96 96" fill="none" xmlns="http://www.w3.org/2000/svg">
<path d="M87.924 50.6124C86.4118 49.236 86.4118 46.764 87.924 45.3875C93.0224 40.7465 96 35.1561 96 29.1892C96 13.0703 74.5122 0 48 0C21.4878 0 0 13.0703 0 29.1892C0 35.1561 2.97761 40.7465 8.07605 45.3876C9.58815 46.764 9.58815 49.236 8.07604 50.6124C2.97761 55.2535 0 60.8439 0 66.8108C0 82.9297 21.4878 96 48 96C74.5122 96 96 82.9297 96 66.8108C96 60.8439 93.0224 55.2535 87.924 50.6124Z" fill="#4B800E"/>
</svg>
