<svg width="80" height="80" viewBox="0 0 80 80" fill="none" xmlns="http://www.w3.org/2000/svg">
<rect width="80" height="80" rx="16" fill="#F43E37"/>
<path fill-rule="evenodd" clip-rule="evenodd" d="M14.0566 40.029C14.0566 25.6855 25.6873 14.0579 40.0344 14.0579C54.3815 14.0579 66.0122 25.6855 66.0122 40.029L59.5177 40.029C59.5177 29.2714 50.7948 20.5507 40.0344 20.5507C29.2741 20.5507 20.5511 29.2714 20.5511 40.029C20.5511 50.7865 29.2741 59.5072 40.0344 59.5072L40.0344 66C25.6873 66 14.0566 54.3724 14.0566 40.029ZM40.0344 55.6116C31.4261 55.6116 24.4477 48.635 24.4477 40.029C24.4477 31.4229 31.4261 24.4463 40.0344 24.4463C48.6427 24.4463 55.6211 31.4229 55.6211 40.029L49.9532 40.029C49.9532 34.5524 45.5124 30.1127 40.0344 30.1127C34.5564 30.1127 30.1156 34.5524 30.1156 40.029C30.1156 45.5055 34.5564 49.9452 40.0344 49.9452L40.0344 55.6116Z" fill="white"/>
</svg>
