<svg width="196" height="136" viewBox="0 0 196 136" fill="none" xmlns="http://www.w3.org/2000/svg">
<path d="M188.875 73.8188C190.647 68.0416 190.416 61.9088 188.232 56.7696C186.048 51.6305 182.09 47.906 177.23 46.4154L44.769 5.79123C39.9086 4.30062 34.5435 5.16603 29.8539 8.19713C25.1642 11.2282 21.5343 16.1768 19.7625 21.954C18.4745 26.154 18.2356 30.5776 19.0743 34.6921C19.913 38.8067 21.7937 42.4369 24.4899 45.1453C20.7389 45.8764 17.1463 47.828 14.145 50.7649C11.1437 53.7018 8.8615 57.4987 7.57329 61.6986C5.80149 67.4758 6.03297 73.6086 8.2169 78.7478C10.4008 83.8869 14.3583 87.6114 19.2186 89.102L151.68 129.726C156.54 131.217 161.905 130.351 166.595 127.32C171.284 124.289 174.914 119.341 176.686 113.563C177.974 109.363 178.213 104.94 177.374 100.825C176.536 96.7107 174.655 93.0805 171.959 90.3721C175.71 89.641 179.302 87.6894 182.304 84.7525C185.305 81.8157 187.587 78.0187 188.875 73.8188Z" fill="black"/>
<path d="M76.032 42.7616L71.9281 56.1431C70.5601 60.6036 67.6798 61.8117 62.9644 60.3656L62.3272 60.1701L56.6599 78.6494L50.2877 76.6951L63.9675 32.0901L71.0406 34.2593C75.6923 35.6859 77.4 38.3011 76.032 42.7616ZM69.5621 41.1259C69.7576 40.4887 69.6641 40.1115 69.2181 39.9747L68.5808 39.7793L64.0861 54.4352L64.7233 54.6306C65.1693 54.7674 65.4582 54.5075 65.6536 53.8702L69.5621 41.1259ZM94.7882 41.5424L81.1084 86.1474L74.7362 84.1932L80.6772 64.8218L79.4028 64.431L73.4618 83.8023L67.0897 81.848L80.7695 37.243L87.1416 39.1973L81.1616 58.696L82.436 59.0869L88.416 39.5881L94.7882 41.5424ZM106.492 45.1319L104.734 50.8669L102.185 50.0851L98.1589 63.2118L100.389 63.8958L98.6304 69.6307L96.4001 68.9467L92.0226 83.2203L94.89 84.0997L93.1312 89.8347L83.8916 87.001L97.5714 42.396L106.492 45.1319ZM133.421 53.3906L117.384 97.2725L108.781 94.6343L117.059 63.7795L119.081 56.731L118.954 56.692L116.676 63.6622L106.232 93.8526L97.6299 91.2144L108.633 45.7885L115.961 48.0359L106.86 77.9408L104.495 85.6511L104.622 85.6902L107.242 78.0581L117.809 48.6027L124.564 50.6742L116.8 80.9895L114.69 88.7779L114.818 88.817L117.246 81.1263L126.412 51.2409L133.421 53.3906ZM136.791 54.424L144.437 56.7691L142.483 63.1413L131.973 90.5924L128.149 89.4199L134.836 60.7962L136.791 54.424ZM123.748 99.2245L126.093 91.5779L132.465 93.5322L130.12 101.179L123.748 99.2245Z" fill="#E0EFAD"/>
<path d="M162.466 88.6954C157.1 88.4751 155.168 89.5339 152.442 94.1584C152.382 94.2588 152.29 94.3363 152.181 94.3788C152.072 94.4213 151.951 94.4264 151.839 94.3933C151.727 94.3601 151.628 94.2907 151.56 94.1957C151.491 94.1008 151.456 93.9858 151.46 93.8687C151.678 88.5053 150.621 86.5653 145.994 83.8399C145.894 83.7795 145.816 83.6876 145.774 83.5784C145.731 83.4693 145.726 83.3491 145.759 83.2367C145.792 83.1244 145.862 83.0262 145.957 82.9576C146.051 82.8889 146.167 82.8537 146.284 82.8575C151.649 83.0777 153.59 82.0214 156.315 77.3968C156.375 77.2965 156.467 77.2189 156.577 77.1764C156.686 77.1339 156.806 77.1289 156.918 77.162C157.031 77.1951 157.129 77.2646 157.198 77.3595C157.266 77.4545 157.302 77.5695 157.298 77.6866C157.079 83.0499 158.128 84.9875 162.755 87.7129C162.856 87.7733 162.933 87.8653 162.976 87.9744C163.018 88.0836 163.023 88.2038 162.99 88.3161C162.957 88.4285 162.888 88.5267 162.793 88.5953C162.698 88.6639 162.583 88.6991 162.466 88.6954Z" fill="#E0EFAD"/>
<path d="M47.9822 52.7002C42.6166 52.48 40.6843 53.5388 37.959 58.1633C37.8986 58.2637 37.8066 58.3412 37.6975 58.3837C37.5883 58.4262 37.468 58.4313 37.3556 58.3981C37.2432 58.365 37.145 58.2955 37.0763 58.2006C37.0076 58.1057 36.9724 57.9907 36.9761 57.8736C37.195 52.5102 36.1378 50.5702 31.5107 47.8448C31.4102 47.7844 31.3327 47.6925 31.2901 47.5833C31.2476 47.4741 31.2425 47.354 31.2756 47.2416C31.3087 47.1293 31.3782 47.0311 31.4731 46.9624C31.5681 46.8938 31.6832 46.8586 31.8003 46.8624C37.1658 47.0826 39.1064 46.0263 41.8317 41.4017C41.892 41.3013 41.984 41.2238 42.0932 41.1813C42.2024 41.1388 42.3226 41.1337 42.435 41.1669C42.5474 41.2 42.6457 41.2695 42.7144 41.3644C42.783 41.4594 42.8183 41.5744 42.8146 41.6915C42.5956 47.0548 43.6447 48.9924 48.2718 51.7178C48.3722 51.7782 48.4498 51.8702 48.4923 51.9793C48.5349 52.0885 48.54 52.2087 48.5069 52.321C48.4738 52.4334 48.4043 52.5316 48.3093 52.6002C48.2144 52.6688 48.0993 52.704 47.9822 52.7002Z" fill="#E0EFAD"/>
</svg>
