<svg width="24" height="24" viewBox="0 0 24 24" fill="none" xmlns="http://www.w3.org/2000/svg">
<path d="M15 2C15.5523 2 16 2.44772 16 3V4H18C19.1044 4 19.9997 4.7957 20 5.77734V18.2227C19.9997 19.2043 19.1044 20 18 20H5C3.89559 20 3.00026 19.2043 3 18.2227V5.77734C3.00026 4.7957 3.89559 4 5 4H7V3C7 2.44772 7.44772 2 8 2C8.55228 2 9 2.44772 9 3V4H14V3C14 2.44772 14.4477 2 15 2ZM5 18H18V6H16V7C16 7.55228 15.5523 8 15 8C14.4477 8 14 7.55228 14 7V6H9V7C9 7.55228 8.55228 8 8 8C7.44772 8 7 7.55228 7 7V6H5V18ZM11.4004 9.2002C12.0596 8.70596 13 9.17602 13 10V15C13 15.5523 12.5523 16 12 16C11.4477 16 11 15.5523 11 15V12L10.5996 12.2998C10.1578 12.631 9.53153 12.5414 9.2002 12.0996C8.86896 11.6578 8.95861 11.0315 9.40039 10.7002L11.4004 9.2002Z" fill="#8F97A4"/>
</svg>
