<svg width="24" height="24" viewBox="0 0 24 24" fill="none" xmlns="http://www.w3.org/2000/svg">
<g id="arrows / circles / heart">
<path id="heart" fill-rule="evenodd" clip-rule="evenodd" d="M3 10.5C3 7.11836 5.8218 4.5 9.14815 4.5C10.301 4.5 11.2686 4.93826 12 5.45686C12.7314 4.93826 13.699 4.5 14.8519 4.5C18.1782 4.5 21 7.11836 21 10.5C21 11.7923 20.504 12.9657 19.9147 13.9219C19.3172 14.8916 18.5359 15.7804 17.758 16.5432C16.2024 18.0686 14.4573 19.2853 13.6091 19.8447C12.63 20.4903 11.37 20.4903 10.3909 19.8447C9.54274 19.2853 7.79759 18.0686 6.24201 16.5432C5.46408 15.7804 4.68282 14.8916 4.0853 13.9219C3.49603 12.9657 3 11.7923 3 10.5ZM11.4919 18.175C11.8031 18.3802 12.1969 18.3802 12.5081 18.175C14.1179 17.1134 19 13.6354 19 10.5C19 8.29086 17.1428 6.5 14.8519 6.5C13.9074 6.5 13.0911 7.04777 12.5523 7.61103C12.2781 7.89771 11.7219 7.89771 11.4477 7.61103C10.9089 7.04777 10.0926 6.5 9.14815 6.5C6.85719 6.5 5 8.29086 5 10.5C5 13.6354 9.88211 17.1134 11.4919 18.175Z" fill="#03A9F4"/>
</g>
</svg>
