<svg width="120" height="120" viewBox="0 0 120 120" fill="none" xmlns="http://www.w3.org/2000/svg">
<g id="shuffle">
<path id="shuffle_2" d="M13.6112 80.1172C13.6112 77.8516 15.3763 76.2109 17.8083 76.2109H26.7517C31.1057 76.2109 33.9299 74.6875 37.3033 70.7031L46.835 59.4141L37.3033 48.125C33.9299 44.1406 30.8703 42.6172 26.4771 42.6172H17.8083C15.3763 42.6172 13.6112 40.9766 13.6112 38.7109C13.6112 36.4453 15.3763 34.8438 17.8083 34.8438H26.7909C33.4984 34.8438 37.7347 36.7969 42.3633 42.2266L51.8558 53.4766L60.9953 42.6562C65.9769 36.7188 70.2525 34.8047 77.2346 34.8047H85.0404V25.5859C85.0404 23.6719 86.1779 22.6172 88.0608 22.6172C88.9237 22.6172 89.7082 22.8906 90.375 23.4375L105.751 36.2109C107.242 37.5 107.242 39.375 105.751 40.5859L90.375 53.3594C89.7082 53.8672 88.9237 54.1797 88.0608 54.1797C86.1779 54.1797 85.0404 53.0859 85.0404 51.2109V42.6172H77.1954C72.6452 42.6172 69.8995 44.0625 66.4869 48.0859L56.8767 59.4141L66.4476 70.7031C69.7818 74.6875 72.8021 76.2109 77.4307 76.2109H85.0404V67.7734C85.0404 65.8594 86.1779 64.8047 88.0608 64.8047C88.9237 64.8047 89.7082 65.0781 90.375 65.625L105.751 78.3984C107.242 79.6875 107.242 81.5625 105.751 82.7734L90.375 95.5469C89.7082 96.0547 88.9237 96.3672 88.0608 96.3672C86.1779 96.3672 85.0404 95.2734 85.0404 93.3984V83.9844H77.1954C70.4486 83.9844 65.9769 82.0312 61.2307 76.4062L51.8558 65.3516L42.3633 76.6016C37.7347 82.0312 33.773 83.9844 27.0262 83.9844H17.8083C15.3763 83.9844 13.6112 82.3828 13.6112 80.1172Z" fill="#03A9F4"/>
</g>
</svg>
