<svg width="20" height="20" viewBox="0 0 20 20" fill="none" xmlns="http://www.w3.org/2000/svg">
<path d="M13.4393 16.6667C15.8513 15.4198 17.5 12.9025 17.5 10C17.5 5.85787 14.1421 2.50001 9.99998 2.50001C5.85784 2.50001 2.49998 5.85787 2.49998 10C2.49998 12.9025 4.14868 15.4198 6.56064 16.6667H3.70842C1.93813 14.9954 0.833313 12.6267 0.833313 10C0.833313 4.9374 4.93737 0.833344 9.99998 0.833344C15.0626 0.833344 19.1666 4.9374 19.1666 10C19.1666 12.6267 18.0618 14.9954 16.2915 16.6667H13.4393Z" fill="#8F97A4"/>
<path fill-rule="evenodd" clip-rule="evenodd" d="M10 5C9.53978 5 9.16669 5.3731 9.16669 5.83333V5.88459C8.68792 5.94782 8.22028 6.07661 7.81652 6.30902C7.11462 6.71305 6.66669 7.40013 6.66669 8.33333C6.66669 9.26654 7.11462 9.95361 7.81652 10.3576C8.22028 10.5901 8.68792 10.7189 9.16669 10.7821V12.3742C9.04857 12.336 8.94023 12.2905 8.84334 12.2397C8.54044 12.081 8.40193 11.9017 8.35619 11.7832C8.19043 11.3538 7.708 11.1402 7.27864 11.3059C6.84929 11.4717 6.63561 11.9541 6.80137 12.3835C7.03316 12.9838 7.52282 13.4295 8.06993 13.7161C8.40027 13.8891 8.77158 14.0158 9.16669 14.09V14.1667C9.16669 14.6269 9.53978 15 10 15C10.4603 15 10.8334 14.6269 10.8334 14.1667V14.1154C11.3121 14.0522 11.7798 13.9234 12.1835 13.691C12.8854 13.2869 13.3334 12.5999 13.3334 11.6667C13.3334 10.7335 12.8854 10.0464 12.1835 9.64235C11.7798 9.40994 11.3121 9.28115 10.8334 9.21792V7.62583C10.9515 7.66404 11.0598 7.70952 11.1567 7.76028C11.4596 7.91896 11.5981 8.09834 11.6439 8.2168C11.8096 8.64615 12.292 8.85983 12.7214 8.69407C13.1507 8.52831 13.3644 8.04588 13.1987 7.61653C12.9669 7.01615 12.4772 6.57053 11.9301 6.28392C11.5998 6.11087 11.2285 5.98417 10.8334 5.90996V5.83333C10.8334 5.3731 10.4603 5 10 5ZM9.16669 7.57317C8.95061 7.61711 8.77746 7.67895 8.64798 7.75348C8.44506 7.87028 8.33335 8.01654 8.33335 8.33333C8.33335 8.65013 8.44506 8.79639 8.64798 8.91319C8.77746 8.98772 8.95061 9.04956 9.16669 9.0935V7.57317ZM10.8334 10.9065V12.4268C11.0494 12.3829 11.2226 12.3211 11.3521 12.2465C11.555 12.1297 11.6667 11.9835 11.6667 11.6667C11.6667 11.3499 11.555 11.2036 11.3521 11.0868C11.2226 11.0123 11.0494 10.9504 10.8334 10.9065Z" fill="#8F97A4"/>
<path fill-rule="evenodd" clip-rule="evenodd" d="M0.833334 16.6667C0.373096 16.6667 0 17.0398 0 17.5C0 17.9602 0.373096 18.3333 0.833334 18.3333H19.1667C19.6269 18.3333 20 17.9602 20 17.5C20 17.0398 19.6269 16.6667 19.1667 16.6667H13.4393H6.56066H0.833334Z" fill="#8F97A4"/>
</svg>
