<svg width="16" height="16" viewBox="0 0 16 16" fill="none" xmlns="http://www.w3.org/2000/svg">
<g id="office-folder 1" clip-path="url(#clip0_383_4438)">
<g id="Group">
<path id="Vector" d="M3.33333 1.66552C3.33333 1.47885 3.48 1.33219 3.66667 1.33219H12.3333C12.5133 1.33219 12.6667 1.47885 12.6667 1.66552V6.49885C12.6667 6.58552 12.74 6.66552 12.8333 6.66552H13.8333C13.92 6.66552 13.9933 6.58552 14 6.49885C14 6.49219 14 6.49219 14 6.49219V1.32552C14 0.585521 13.4 -0.0078125 12.6667 -0.0078125H3.33333C2.59333 -0.0078125 2 0.585521 2 1.32552V4.49219C2 4.57885 2.07333 4.65885 2.16667 4.65885H3.16667C3.25333 4.65885 3.32667 4.57885 3.33333 4.49219C3.33333 4.48552 3.33333 4.48552 3.32667 4.48552L3.33333 1.66552Z" fill="black"/>
<path id="Vector_2" d="M15.9783 8.87163C16.0917 8.32497 15.745 7.7983 15.205 7.68497C15.1317 7.66497 15.065 7.6583 14.9983 7.6583H6.58766C6.42766 7.6583 6.28766 7.54497 6.26099 7.39163L6.07432 6.4583C5.97432 5.99163 5.56766 5.65163 5.09366 5.6583H0.993657C0.440324 5.65163 -0.0130096 6.10497 -0.0130096 6.65163C-0.0196763 6.70497 -0.0130096 6.7583 0.000323698 6.8183L1.41366 15.1516C1.49366 15.6316 1.90699 15.9783 2.39366 15.9783H13.6457C14.1123 15.9716 14.5257 15.645 14.619 15.1783C14.9723 13.4783 15.5523 10.725 15.9457 8.84497L15.9783 8.87163Z" fill="black"/>
</g>
</g>
<defs>
<clipPath id="clip0_383_4438">
<rect width="16" height="16" fill="white"/>
</clipPath>
</defs>
</svg>
