<svg width="198" height="166" viewBox="0 0 198 166" fill="none" xmlns="http://www.w3.org/2000/svg">
<path d="M174.403 33.9043L188.585 86.8336C189.905 91.7615 187.708 97.0614 183.108 99.9904C176.068 104.468 171.497 111.75 170.803 119.584C170.349 124.707 166.452 129.106 161.142 130.528L68.8818 155.25C63.5707 156.673 57.9963 154.812 55.042 150.602C50.5228 144.162 42.9247 140.144 34.5882 139.786C29.1362 139.55 24.5874 136.058 23.267 131.13L9.08462 78.2011C7.76418 73.2732 9.96189 67.9733 14.5627 65.0439C21.6035 60.566 26.1724 53.2849 26.8675 45.4536C27.3209 40.3302 31.2183 35.932 36.5294 34.5088L128.79 9.78769C134.1 8.36496 139.674 10.2253 142.628 14.4355C147.147 20.8745 154.745 24.8909 163.081 25.2485C168.529 25.4854 173.082 28.9764 174.403 33.9043Z" fill="#8148F9"/>
<path d="M55.7361 46.8488L61.7839 75.3643L56.3613 76.8173L50.523 57.76L49.2588 53.3631L49.1784 53.3846L50.282 57.8246L54.7546 77.2478L49.332 78.7008L40.1109 51.0356L44.7302 49.7978L49.8181 68.6256L51.1204 73.4859L51.2008 73.4644L50.0591 68.561L45.8951 49.4857L50.1528 48.3449L56.0843 66.9466L57.5472 71.7638L57.6276 71.7423L56.3654 66.8713L51.3177 48.0327L55.7361 46.8488ZM63.9088 44.659L73.652 72.1842L69.2336 73.3681L67.1952 66.7247L66.0705 67.0261L67.6269 73.7986L63.6101 74.8749L58.2854 46.1657L63.9088 44.659ZM65.2224 63.3787L66.106 63.142L63.5431 54.7018L62.1203 49.8738L62.04 49.8953L63.2218 54.7879L65.2224 63.3787ZM75.8407 41.4618L78.0071 61.1154L80.4826 70.354L76.4658 71.4302L73.9904 62.1917L66.0398 44.088L70.1369 42.9901L73.3332 52.5091L74.5702 56.4828L74.6505 56.4612L73.7349 52.4014L71.7436 42.5596L75.8407 41.4618ZM89.5727 37.7823L90.5414 41.3974L88.533 41.9355L95.0984 66.4377L91.0816 67.514L84.5163 43.0118L82.5079 43.55L81.5393 39.9349L89.5727 37.7823ZM101.072 39.1786L106.367 58.941C107.12 61.7527 105.703 63.8545 103.132 64.5433C100.562 65.2321 98.2834 64.1205 97.53 61.3088L92.2347 41.5464C91.492 38.7748 92.9788 36.6114 95.5094 35.9333C98.0399 35.2552 100.318 36.3669 101.072 39.1786ZM97.001 40.054C96.8933 39.6523 96.719 39.4838 96.4378 39.5591C96.1567 39.6345 96.09 39.8676 96.1976 40.2693L101.601 60.4333C101.708 60.835 101.883 61.0036 102.164 60.9282C102.445 60.8529 102.512 60.6198 102.404 60.2181L97.001 40.054ZM114.238 45.4233L118.656 44.2394L122.628 59.0612L118.611 60.1375L118.181 58.5308L118.09 58.5121C118.021 59.8649 117.39 60.7229 116.426 60.9812C114.94 61.3794 113.425 60.0633 112.672 57.2516L107.376 37.4892C106.634 34.7176 108.121 32.5542 110.651 31.8761C113.182 31.198 115.46 32.3096 116.213 35.1214L117.946 41.5883L113.929 42.6646L112.143 35.9968C112.035 35.5951 111.861 35.4266 111.58 35.5019C111.298 35.5773 111.232 35.8104 111.339 36.2121L116.785 56.5368C116.893 56.9385 117.067 57.107 117.348 57.0317C117.63 56.9563 117.696 56.7232 117.589 56.3215L115.608 48.9307L115.207 49.0384L114.238 45.4233ZM126.804 32.2834L132.1 52.0458C132.853 54.8576 131.436 56.9593 128.865 57.6482C126.295 58.337 124.016 57.2254 123.263 54.4137L117.968 34.6513C117.225 31.8797 118.712 29.7162 121.242 29.0382C123.773 28.3601 126.051 29.4717 126.804 32.2834ZM122.734 33.1589C122.626 32.7572 122.452 32.5887 122.171 32.664C121.89 32.7393 121.823 32.9725 121.931 33.3742L127.334 53.5382C127.441 53.9399 127.615 54.1084 127.897 54.0331C128.178 53.9578 128.245 53.7246 128.137 53.323L122.734 33.1589ZM127.841 27.5283L132.661 26.2368L133.738 30.2535L137.268 48.2501L134.858 48.8958L128.918 31.5451L127.841 27.5283ZM135.777 55.5379L134.485 50.7178L138.502 49.6415L139.794 54.4616L135.777 55.5379Z" fill="#EDB0F3"/>
<path d="M63.8245 77.0354L69.8723 105.551L64.4497 107.004L58.6114 87.9465L57.3472 83.5496L57.2669 83.5712L58.3704 88.0111L62.843 107.434L57.4204 108.887L48.1994 81.2221L52.8186 79.9844L57.9066 98.8121L59.2089 103.672L59.2892 103.651L58.1476 98.7476L53.9835 79.6722L58.2412 78.5314L64.1727 97.1331L65.6357 101.95L65.716 101.929L64.4539 97.0578L59.4061 78.2193L63.8245 77.0354ZM71.9972 74.8455L81.7404 102.371L77.322 103.555L75.2836 96.9113L74.1589 97.2126L75.7153 103.985L71.6986 105.061L66.3738 76.3523L71.9972 74.8455ZM73.3108 93.5653L74.1945 93.3285L71.6316 84.8883L70.2088 80.0603L70.1284 80.0819L71.3102 84.9744L73.3108 93.5653ZM83.9291 71.6483L86.0956 91.302L88.571 100.54L84.5543 101.617L82.0788 92.3783L74.1282 74.2745L78.2253 73.1767L81.4217 82.6956L82.6586 86.6693L82.739 86.6478L81.8233 82.588L79.832 72.7462L83.9291 71.6483ZM97.6612 67.9688L98.6298 71.5839L96.6215 72.1221L103.187 96.6242L99.17 97.7005L92.6047 73.1983L90.5963 73.7365L89.6277 70.1214L97.6612 67.9688ZM109.16 69.3651L114.455 89.1275C115.209 91.9392 113.791 94.041 111.221 94.7298C108.65 95.4186 106.372 94.307 105.618 91.4953L100.323 71.7329C99.5805 68.9614 101.067 66.7979 103.598 66.1198C106.128 65.4418 108.407 66.5534 109.16 69.3651ZM105.089 70.2405C104.982 69.8389 104.807 69.6703 104.526 69.7457C104.245 69.821 104.178 70.0541 104.286 70.4558L109.689 90.6199C109.797 91.0215 109.971 91.1901 110.252 91.1147C110.533 91.0394 110.6 90.8063 110.492 90.4046L105.089 70.2405ZM122.326 75.6098L126.745 74.4259L130.716 89.2477L126.7 90.324L126.269 88.7173L126.178 88.6986C126.11 90.0515 125.479 90.9094 124.515 91.1677C123.029 91.5659 121.514 90.2498 120.76 87.4381L115.465 67.6757C114.722 64.9042 116.209 62.7407 118.739 62.0626C121.27 61.3846 123.548 62.4962 124.302 65.3079L126.034 71.7749L122.018 72.8511L120.231 66.1833C120.123 65.7817 119.949 65.6131 119.668 65.6885C119.387 65.7638 119.32 65.9969 119.428 66.3986L124.874 86.7233C124.981 87.125 125.156 87.2935 125.437 87.2182C125.718 87.1429 125.785 86.9097 125.677 86.5081L123.697 79.1173L123.295 79.2249L122.326 75.6098ZM134.893 62.47L140.188 82.2324C140.942 85.0441 139.524 87.1459 136.954 87.8347C134.383 88.5235 132.105 87.4119 131.351 84.6002L126.056 64.8378C125.313 62.0662 126.8 59.9028 129.331 59.2247C131.861 58.5466 134.14 59.6583 134.893 62.47ZM130.822 63.3454C130.715 62.9437 130.54 62.7752 130.259 62.8505C129.978 62.9259 129.911 63.159 130.019 63.5607L135.422 83.7247C135.53 84.1264 135.704 84.295 135.985 84.2196C136.266 84.1443 136.333 83.9112 136.225 83.5095L130.822 63.3454ZM135.93 57.7148L140.75 56.4233L141.826 60.44L145.357 78.4366L142.947 79.0824L137.006 61.7316L135.93 57.7148ZM143.865 85.7244L142.574 80.9043L146.591 79.828L147.882 84.6481L143.865 85.7244Z" fill="#EDB0F3"/>
<path d="M71.9129 107.222L77.9607 135.737L72.5381 137.19L66.6999 118.133L65.4356 113.736L65.3553 113.758L66.4588 118.198L70.9314 137.621L65.5088 139.074L56.2878 111.409L60.907 110.171L65.995 128.999L67.2973 133.859L67.3776 133.837L66.236 128.934L62.0719 109.859L66.3296 108.718L72.2611 127.32L73.7241 132.137L73.8044 132.115L72.5423 127.244L67.4945 108.406L71.9129 107.222ZM80.0857 105.032L89.8288 132.557L85.4104 133.741L83.372 127.098L82.2473 127.399L83.8037 134.172L79.787 135.248L74.4622 106.539L80.0857 105.032ZM81.3992 123.752L82.2829 123.515L79.72 115.075L78.2972 110.247L78.2168 110.268L79.3986 115.161L81.3992 123.752ZM92.0175 101.835L94.184 121.488L96.6594 130.727L92.6427 131.803L90.1672 122.565L82.2166 104.461L86.3137 103.363L89.5101 112.882L90.747 116.856L90.8274 116.834L89.9118 112.774L87.9204 102.933L92.0175 101.835ZM105.75 98.1554L106.718 101.77L104.71 102.309L111.275 126.811L107.258 127.887L100.693 103.385L98.6847 103.923L97.7161 100.308L105.75 98.1554ZM117.248 99.5516L122.544 119.314C123.297 122.126 121.88 124.228 119.309 124.916C116.738 125.605 114.46 124.494 113.707 121.682L108.412 101.919C107.669 99.1479 109.156 96.9844 111.686 96.3064C114.217 95.6283 116.495 96.7399 117.248 99.5516ZM113.178 100.427C113.07 100.025 112.896 99.8568 112.615 99.9322C112.334 100.008 112.267 100.241 112.374 100.642L117.777 120.806C117.885 121.208 118.059 121.377 118.341 121.301C118.622 121.226 118.688 120.993 118.581 120.591L113.178 100.427ZM130.415 105.796L134.833 104.612L138.805 119.434L134.788 120.51L134.357 118.904L134.266 118.885C134.198 120.238 133.567 121.096 132.603 121.354C131.117 121.752 129.602 120.436 128.849 117.625L123.553 97.8622C122.811 95.0907 124.297 92.9272 126.828 92.2491C129.358 91.5711 131.637 92.6827 132.39 95.4944L134.123 101.961L130.106 103.038L128.32 96.3699C128.212 95.9682 128.038 95.7996 127.756 95.875C127.475 95.9503 127.409 96.1834 127.516 96.5851L132.962 116.91C133.07 117.312 133.244 117.48 133.525 117.405C133.806 117.329 133.873 117.096 133.765 116.695L131.785 109.304L131.383 109.411L130.415 105.796ZM142.981 92.6565L148.277 112.419C149.03 115.231 147.613 117.332 145.042 118.021C142.471 118.71 140.193 117.598 139.44 114.787L134.144 95.0243C133.402 92.2528 134.889 90.0893 137.419 89.4112C139.95 88.7332 142.228 89.8448 142.981 92.6565ZM138.911 93.5319C138.803 93.1303 138.629 92.9617 138.348 93.0371C138.066 93.1124 138 93.3455 138.107 93.7472L143.51 113.911C143.618 114.313 143.792 114.481 144.073 114.406C144.355 114.331 144.421 114.098 144.314 113.696L138.911 93.5319ZM144.018 87.9014L148.838 86.6098L149.914 90.6266L153.445 108.623L151.035 109.269L145.094 91.9181L144.018 87.9014ZM151.954 115.911L150.662 111.091L154.679 110.015L155.97 114.835L151.954 115.911Z" fill="#EDB0F3"/>
</svg>
