<svg width="24" height="24" viewBox="0 0 24 24" fill="none" xmlns="http://www.w3.org/2000/svg">
<g id="objects / statuses / clock-large">
<path id="Oval 4 (Stroke)" fill-rule="evenodd" clip-rule="evenodd" d="M4 12C4 16.4183 7.58172 20 12 20C16.4183 20 20 16.4183 20 12C20 7.58172 16.4183 4 12 4C7.58172 4 4 7.58172 4 12ZM12 22C6.47715 22 2 17.5228 2 12C2 6.47715 6.47715 2 12 2C17.5228 2 22 6.47715 22 12C22 17.5228 17.5228 22 12 22Z" fill="black"/>
<path id="Vector 1 (Stroke)" opacity="0.5" fill-rule="evenodd" clip-rule="evenodd" d="M12 6C12.5523 6 13 6.44772 13 7L13 11.3406L15.8939 12.5809C16.4016 12.7984 16.6367 13.3863 16.4191 13.8939C16.2016 14.4016 15.6137 14.6367 15.1061 14.4191L11.6749 12.9486C11.2655 12.7731 11 12.3705 11 11.925L11 7C11 6.44772 11.4477 6 12 6Z" fill="black"/>
</g>
</svg>
