<svg width="24" height="25" viewBox="0 0 24 25" fill="none" xmlns="http://www.w3.org/2000/svg">
<path opacity="0.5" fill-rule="evenodd" clip-rule="evenodd" d="M21 12.7695C21 12.2172 20.5523 11.7695 20 11.7695L15 11.7695C14.4477 11.7695 14 12.2172 14 12.7695C14 13.3218 14.4477 13.7695 15 13.7695L20 13.7695C20.5523 13.7695 21 13.3218 21 12.7695Z" fill="black"/>
<path opacity="0.5" fill-rule="evenodd" clip-rule="evenodd" d="M22 16.7695C22 16.2172 21.5523 15.7695 21 15.7695L15 15.7695C14.4477 15.7695 14 16.2172 14 16.7695C14 17.3218 14.4477 17.7695 15 17.7695H21C21.5523 17.7695 22 17.3218 22 16.7695Z" fill="black"/>
<path opacity="0.5" fill-rule="evenodd" clip-rule="evenodd" d="M23 20.7695C23 20.2172 22.5523 19.7695 22 19.7695H15C14.4477 19.7695 14 20.2172 14 20.7695C14 21.3218 14.4477 21.7695 15 21.7695H22C22.5523 21.7695 23 21.3218 23 20.7695Z" fill="black"/>
<path fill-rule="evenodd" clip-rule="evenodd" d="M13.1057 3.32229C13.3527 2.82831 13.9534 2.62809 14.4474 2.87508C14.9413 3.12207 15.1416 3.72274 14.8946 4.21672L11.1447 11.7165C11.6374 12.192 12.0001 12.8722 12.0001 13.7695V21.7695H4.00008C2.38106 21.7695 0.910774 20.427 1.11588 18.6559C1.44954 15.7748 2.48785 13.7729 3.94465 12.4966C5.39465 11.2263 7.15132 10.7695 8.75009 10.7695C8.93308 10.7695 9.13775 10.7877 9.35313 10.8275L13.1057 3.32229ZM3.1026 18.886C3.39322 16.3766 4.2618 14.8778 5.26259 14.001C6.27018 13.1182 7.5218 12.7695 8.75009 12.7695C8.96597 12.7695 9.32863 12.8494 9.60857 13.0373C9.847 13.1973 10.0001 13.4083 10.0001 13.7695V19.7695H4.00008C3.40997 19.7695 3.05356 19.3094 3.1026 18.886Z" fill="black"/>
</svg>
