<svg width="36" height="36" viewBox="0 0 36 36" fill="none" xmlns="http://www.w3.org/2000/svg">
<g id="arrows / simple / switch">
<g id="icon">
<path d="M25.0609 3.43934C24.4751 2.85355 23.5254 2.85355 22.9396 3.43934C22.3538 4.02513 22.3538 4.97487 22.9396 5.56066L26.3789 9H7.50023C6.6718 9 6.00023 9.67157 6.00023 10.5C6.00023 11.3284 6.6718 12 7.50023 12H26.3789L22.9396 15.4393C22.3538 16.0251 22.3538 16.9749 22.9396 17.5607C23.5254 18.1464 24.4751 18.1464 25.0609 17.5607L32.1215 10.5L25.0609 3.43934Z" fill="#03A9F4"/>
<path d="M10.9396 18.4393C11.5254 17.8536 12.4751 17.8536 13.0609 18.4393C13.6467 19.0251 13.6467 19.9749 13.0609 20.5607L9.62155 24H28.5002C29.3286 24 30.0002 24.6716 30.0002 25.5C30.0002 26.3284 29.3286 27 28.5002 27H9.62155L13.0609 30.4393C13.6467 31.0251 13.6467 31.9749 13.0609 32.5607C12.4751 33.1464 11.5254 33.1464 10.9396 32.5607L3.87891 25.5L10.9396 18.4393Z" fill="#03A9F4"/>
</g>
</g>
</svg>
