<svg width="32" height="32" viewBox="0 0 32 32" fill="none" xmlns="http://www.w3.org/2000/svg">
<path opacity="0.5" fill-rule="evenodd" clip-rule="evenodd" d="M1.33301 16.0002C1.33301 24.1003 7.8995 30.6668 15.9997 30.6668C24.0998 30.6668 30.6663 24.1003 30.6663 16.0002C30.6663 7.89999 24.0998 1.3335 15.9997 1.3335C7.8995 1.3335 1.33301 7.89999 1.33301 16.0002ZM27.9997 16.0002C27.9997 22.6276 22.6271 28.0002 15.9997 28.0002C9.37226 28.0002 3.99967 22.6276 3.99967 16.0002C3.99967 9.37274 9.37226 4.00016 15.9997 4.00016C22.6271 4.00016 27.9997 9.37274 27.9997 16.0002Z" fill="#8F97A4"/>
<path fill-rule="evenodd" clip-rule="evenodd" d="M16 7.6665C15.0795 7.6665 14.3333 8.4127 14.3333 9.33317C14.3333 10.2536 15.0795 10.9998 16 10.9998C16.9205 10.9998 17.6667 10.2536 17.6667 9.33317C17.6667 8.4127 16.9205 7.6665 16 7.6665ZM12 22.6665C12 21.9301 12.597 21.3332 13.3333 21.3332H14.6667L14.6667 15.9998H14C13.2636 15.9998 12.6667 15.4029 12.6667 14.6665C12.6667 13.9301 13.2636 13.3332 14 13.3332H15.3333C16.4379 13.3332 17.3333 14.2286 17.3333 15.3332L17.3333 21.3332H18.6667C19.403 21.3332 20 21.9301 20 22.6665C20 23.4029 19.403 23.9998 18.6667 23.9998H16H13.3333C12.597 23.9998 12 23.4029 12 22.6665Z" fill="#8F97A4"/>
</svg>
