<svg width="162" height="162" viewBox="0 0 162 162" fill="none" xmlns="http://www.w3.org/2000/svg">
<path d="M92.4364 42.1043L98.2284 19.8487C99.3784 15.4299 105.652 15.43 106.802 19.8489L112.593 42.1041C113.011 43.7096 114.291 44.9471 115.909 45.3107L133.476 49.2561C138.088 50.2919 138.088 56.8643 133.476 57.9001L115.909 61.8455C114.291 62.209 113.011 63.4465 112.593 65.052L106.802 87.3073C105.652 91.7261 99.3784 91.7262 98.2284 87.3074L92.4364 65.0518C92.0186 63.4464 90.7389 62.209 89.1203 61.8455L71.5548 57.9001C66.9429 56.8642 66.9429 50.292 71.5548 49.2561L89.1203 45.3107C90.7389 44.9471 92.0186 43.7097 92.4364 42.1043Z" fill="url(#paint0_linear_3_1948)"/>
<path opacity="0.8" d="M36.3621 69.9283L40.6811 58.1709C41.6288 55.5911 45.2775 55.5911 46.2251 58.1709L50.5442 69.9283C50.8611 70.7909 51.5615 71.4569 52.4389 71.7298L60.9676 74.3831C63.7354 75.2442 63.7354 79.1616 60.9676 80.0227L52.4389 82.6762C51.5614 82.9492 50.8611 83.6151 50.5442 84.4777L46.2252 96.2351C45.2775 98.8149 41.6288 98.8149 40.6811 96.2351L36.3621 84.4777C36.0452 83.6151 35.3448 82.9492 34.4674 82.6762L25.9387 80.0227C23.1709 79.1616 23.1709 75.2442 25.9387 74.3831L34.4673 71.7298C35.3448 71.4569 36.0452 70.7909 36.3621 69.9283Z" fill="url(#paint1_linear_3_1948)"/>
<path opacity="0.6" d="M68.1898 109.77L73.1305 94.652C74.0175 91.9376 77.8575 91.9376 78.7445 94.652L83.6851 109.77C83.9721 110.648 84.6533 111.342 85.5262 111.644L97.4068 115.756C100.056 116.673 100.056 120.42 97.4068 121.337L85.5262 125.45C84.6533 125.752 83.9721 126.445 83.6852 127.323L78.7445 142.442C77.8575 145.156 74.0175 145.156 73.1305 142.442L68.1898 127.323C67.9029 126.445 67.2217 125.752 66.3488 125.45L54.4681 121.337C51.8186 120.42 51.8187 116.673 54.4682 115.756L66.3488 111.644C67.2217 111.342 67.9029 110.648 68.1898 109.77Z" fill="url(#paint2_linear_3_1948)"/>
<defs>
<linearGradient id="paint0_linear_3_1948" x1="71.5677" y1="22.7955" x2="133.132" y2="84.6897" gradientUnits="userSpaceOnUse">
<stop stop-color="#03A9F4"/>
<stop offset="1" stop-color="#50D0F1"/>
</linearGradient>
<linearGradient id="paint1_linear_3_1948" x1="25.8389" y1="59.7798" x2="60.6832" y2="95.0062" gradientUnits="userSpaceOnUse">
<stop stop-color="#03A9F4"/>
<stop offset="1" stop-color="#50D0F1"/>
</linearGradient>
<linearGradient id="paint2_linear_3_1948" x1="54.847" y1="96.9989" x2="97.9331" y2="139.17" gradientUnits="userSpaceOnUse">
<stop stop-color="#03A9F4"/>
<stop offset="1" stop-color="#50D0F1"/>
</linearGradient>
</defs>
</svg>
