<svg width="24" height="24" viewBox="0 0 24 24" fill="none" xmlns="http://www.w3.org/2000/svg">
<path d="M12 3C9.81732 3 8.00015 4.82793 8 7.14258V8H18C19.1046 8 20 8.89543 20 10V20L19.9893 20.2041C19.887 21.2128 19.0357 22 18 22H6L5.7959 21.9893C4.85435 21.8938 4.1062 21.1457 4.01074 20.2041L4 20V10C4 8.96435 4.78722 8.113 5.7959 8.01074L6 8V7.14258C6.00015 3.77684 8.66002 1 12 1V3ZM6 20H18V10H6V20ZM12 12C13.1046 12 14 12.8954 14 14C14 14.7398 13.5971 15.3835 13 15.7295V17C13 17.5523 12.5523 18 12 18C11.4477 18 11 17.5523 11 17V15.7295C10.4029 15.3835 10 14.7398 10 14C10 12.8954 10.8954 12 12 12Z" fill="white"/>
</svg>
