<svg width="24" height="24" viewBox="0 0 24 24" fill="none" xmlns="http://www.w3.org/2000/svg">
<g id="objects / actions / folder-cross">
<g id="Subtract">
<path d="M4.66667 3C2.64162 3 1 4.64162 1 6.66667V17.5C1 16.9477 1.44772 16.5 2 16.5C2.55228 16.5 3 16.9477 3 17.5V6.66667C3 5.74619 3.74619 5 4.66667 5H7.33333C8.25381 5 9 5.74619 9 6.66667C9 7.40305 9.59695 8 10.3333 8H16C16.5523 8 17 8.44772 17 9V10H19V9C19 7.34315 17.6569 6 16 6H10.9395C10.626 4.29325 9.13071 3 7.33333 3H4.66667Z" fill="#03A9F4"/>
<path d="M3.02785 18.2353C3.00965 18.1599 3 18.0811 3 18V18.0857C3 18.1385 3.00987 18.1889 3.02785 18.2353Z" fill="#03A9F4"/>
</g>
<path id="Subtract_2" fill-rule="evenodd" clip-rule="evenodd" d="M10.0253 12H19H19.01L19.0101 12L22.1303 12C21.724 10.8583 20.6381 10 19.3005 10H10.0253C7.82912 10 5.89003 11.4331 5.24549 13.5326L3.81036 18.2073C3.75695 18.3813 3.59628 18.5 3.4143 18.5C3.18549 18.5 3 18.3145 3 18.0857V17.5C3 17.1812 2.85083 16.8973 2.61847 16.7141C2.507 16.6263 2.37639 16.5617 2.23392 16.5275C2.15888 16.5095 2.08055 16.5 2 16.5C1.44772 16.5 1 16.9477 1 17.5V18.3C1 19.7912 2.20883 21 3.69999 21H11.5V19H5.64885C5.67621 18.933 5.70075 18.8644 5.72229 18.7943L7.15742 14.1196C7.54415 12.8599 8.7076 12 10.0253 12Z" fill="#03A9F4"/>
<circle id="Ellipse 34" cx="11.5" cy="20" r="1" fill="#03A9F4"/>
<path id="Union" d="M15.2929 15.2929C15.6834 14.9024 16.3166 14.9024 16.7071 15.2929L19 17.5858L21.2929 15.2929C21.6834 14.9024 22.3166 14.9024 22.7071 15.2929C23.0976 15.6834 23.0976 16.3166 22.7071 16.7071L20.4142 19L22.7071 21.2929C23.0976 21.6834 23.0976 22.3166 22.7071 22.7071C22.3166 23.0976 21.6834 23.0976 21.2929 22.7071L19 20.4142L16.7071 22.7071C16.3166 23.0976 15.6834 23.0976 15.2929 22.7071C14.9024 22.3166 14.9024 21.6834 15.2929 21.2929L17.5858 19L15.2929 16.7071C14.9024 16.3166 14.9024 15.6834 15.2929 15.2929Z" fill="#03A9F4"/>
</g>
</svg>
