<?xml version="1.0" encoding="UTF-8"?>
<svg id="Layer_1" xmlns="http://www.w3.org/2000/svg" version="1.1" viewBox="0 0 22 22">
  <!-- Generator: Adobe Illustrator 29.2.1, SVG Export Plug-In . SVG Version: 2.1.0 Build 116)  -->
  <defs>
    <style>
      .st0 {
        fill: #fff;
      }
    </style>
  </defs>
  <g id="shuffle">
    <path id="shuffle_2" class="st0" d="M0,15.89c0-.54.42-.93.99-.93h2.11c1.03,0,1.69-.36,2.49-1.3l2.25-2.67-2.25-2.67c-.8-.94-1.52-1.3-2.55-1.3H.99c-.57,0-.99-.39-.99-.93s.42-.92.99-.92h2.12c1.58,0,2.58.46,3.67,1.75l2.24,2.66,2.16-2.56c1.18-1.41,2.18-1.86,3.83-1.86h1.84v-2.18c0-.45.27-.7.71-.7.2,0,.39.06.55.19l3.63,3.03c.35.31.35.75,0,1.04l-3.63,3.03c-.16.12-.34.19-.55.19-.44,0-.71-.26-.71-.7v-2.04h-1.85c-1.07,0-1.72.34-2.53,1.3l-2.27,2.68,2.26,2.67c.79.94,1.5,1.3,2.59,1.3h1.8v-2c0-.45.27-.7.71-.7.2,0,.39.06.55.19l3.63,3.03c.35.31.35.75,0,1.04l-3.63,3.03c-.16.12-.34.19-.55.19-.44,0-.71-.26-.71-.7v-2.23h-1.85c-1.59,0-2.65-.46-3.77-1.8l-2.21-2.62-2.24,2.66c-1.09,1.29-2.03,1.75-3.62,1.75H.99c-.57,0-.99-.38-.99-.92Z"/>
  </g>
</svg>