<svg width="40" height="40" viewBox="0 0 40 40" fill="none" xmlns="http://www.w3.org/2000/svg">
<g id="objects / statuses / yield">
<path id="Path (Stroke)" opacity="0.5" fill-rule="evenodd" clip-rule="evenodd" d="M6.9204 27.553C6.44051 28.3046 6.66854 29.296 7.37387 29.7584C7.61687 29.9178 7.89569 30 8.17709 30H31.8236C32.6158 30 33.3334 29.3369 33.3334 28.4254C33.3334 28.1124 33.2439 27.8093 33.0803 27.553L21.257 9.03617C20.7938 8.31067 19.8755 8.13063 19.1971 8.57547C19.0187 8.69247 18.8633 8.8487 18.7436 9.03617L6.9204 27.553ZM4.11093 25.7591C2.65785 28.0349 3.30037 31.0734 5.54605 32.546C6.32984 33.0599 7.24352 33.3333 8.17709 33.3333H31.8236C34.4984 33.3333 36.6667 31.136 36.6667 28.4254C36.6667 27.4793 36.3969 26.5534 35.8897 25.7591L24.0665 7.24229C22.6134 4.96656 19.615 4.31544 17.3693 5.78797C16.7949 6.16459 16.3058 6.66024 15.9342 7.24229L4.11093 25.7591Z" fill="#8F97A4"/>
<g id="!">
<path d="M20 13.3333C19.0949 13.3333 18.3756 14.0937 18.4258 14.9974L18.8306 22.2839C18.8633 22.8727 19.3503 23.3333 19.94 23.3333H20.0601C20.6498 23.3333 21.1367 22.8727 21.1695 22.2839L21.5743 14.9974C21.6245 14.0937 20.9052 13.3333 20 13.3333Z" fill="#8F97A4"/>
<path d="M21.7917 26.7612C21.7917 27.7339 21.0175 28.5224 20.0625 28.5224C19.1075 28.5224 18.3334 27.7339 18.3334 26.7612C18.3334 25.7885 19.1075 25 20.0625 25C21.0175 25 21.7917 25.7885 21.7917 26.7612Z" fill="#8F97A4"/>
</g>
</g>
</svg>
