<svg width="162" height="162" viewBox="0 0 162 162" fill="none" xmlns="http://www.w3.org/2000/svg">
<path opacity="0.2" d="M86.2799 140.795C85.7419 141.062 85.1411 140.98 84.6955 140.577C78.2703 134.767 31.0343 90.8031 35.5468 58.0383C38.3951 37.3572 56.6711 22.7908 76.3675 25.5035C85.3452 26.74 93.0685 31.3529 98.5459 37.9659C99.0722 38.6014 100.005 38.7298 100.683 38.2603C107.744 33.3741 116.427 31.0207 125.405 32.2571C145.101 34.9698 158.759 53.9342 155.911 74.6154C151.398 107.38 94.0364 136.938 86.2799 140.795Z" fill="url(#paint0_linear_1_2)"/>
<path fill-rule="evenodd" clip-rule="evenodd" d="M70.8754 63.5443L62.3188 55.0567C58.2078 50.9787 52.8066 48.6002 46.9504 48.6002C34.9654 48.6002 24.3004 58.9431 24.3004 72.9002C24.3004 81.5722 30.6372 92.851 41.5193 104.846C51.5617 115.916 63.4501 125.413 70.8754 130.912C78.3007 125.413 90.1891 115.916 100.231 104.846C111.114 92.851 117.45 81.5722 117.45 72.9002C117.45 58.9431 106.785 48.6002 94.8004 48.6002C88.9441 48.6002 83.543 50.9787 79.432 55.0567L70.8754 63.5443ZM70.8754 46.4307C64.639 40.2444 56.2177 36.4502 46.9504 36.4502C27.7309 36.4502 12.1504 52.7694 12.1504 72.9002C12.1504 100.026 49.0676 129.966 64.3608 141.204C68.2743 144.08 73.4765 144.08 77.39 141.204C92.6832 129.966 129.6 100.026 129.6 72.9002C129.6 52.7694 114.02 36.4502 94.8004 36.4502C85.5331 36.4502 77.1118 40.2444 70.8754 46.4307Z" fill="url(#paint1_linear_1_2)"/>
<defs>
<linearGradient id="paint0_linear_1_2" x1="45.467" y1="30.9213" x2="123.065" y2="150.691" gradientUnits="userSpaceOnUse">
<stop stop-color="#03A9F4"/>
<stop offset="1" stop-color="#50D0F1"/>
</linearGradient>
<linearGradient id="paint1_linear_1_2" x1="18.0738" y1="45.4849" x2="105.605" y2="149.53" gradientUnits="userSpaceOnUse">
<stop stop-color="#03A9F4"/>
<stop offset="1" stop-color="#50D0F1"/>
</linearGradient>
</defs>
</svg>
