<svg width="24" height="24" viewBox="0 0 24 24" fill="none" xmlns="http://www.w3.org/2000/svg">
<path fill-rule="evenodd" clip-rule="evenodd" d="M3.5 2.5H6.5C7.05228 2.5 7.5 2.94772 7.5 3.5V6.5C7.5 7.05228 7.05228 7.5 6.5 7.5H3.5C2.94772 7.5 2.5 7.05228 2.5 6.5V3.5C2.5 2.94772 2.94772 2.5 3.5 2.5ZM10.5 2.5H13.5C14.0523 2.5 14.5 2.94772 14.5 3.5V6.5C14.5 7.05228 14.0523 7.5 13.5 7.5H10.5C9.94772 7.5 9.5 7.05228 9.5 6.5V3.5C9.5 2.94772 9.94772 2.5 10.5 2.5ZM17.5 2.5H20.5C21.0523 2.5 21.5 2.94772 21.5 3.5V6.5C21.5 7.05228 21.0523 7.5 20.5 7.5H17.5C16.9477 7.5 16.5 7.05228 16.5 6.5V3.5C16.5 2.94772 16.9477 2.5 17.5 2.5ZM3.5 9.5H6.5C7.05228 9.5 7.5 9.94772 7.5 10.5V13.5C7.5 14.0523 7.05228 14.5 6.5 14.5H3.5C2.94772 14.5 2.5 14.0523 2.5 13.5V10.5C2.5 9.94772 2.94772 9.5 3.5 9.5ZM10.5 9.5H13.5C14.0523 9.5 14.5 9.94772 14.5 10.5V13.5C14.5 14.0523 14.0523 14.5 13.5 14.5H10.5C9.94772 14.5 9.5 14.0523 9.5 13.5V10.5C9.5 9.94772 9.94772 9.5 10.5 9.5ZM17.5 9.5H20.5C21.0523 9.5 21.5 9.94772 21.5 10.5V13.5C21.5 14.0523 21.0523 14.5 20.5 14.5H17.5C16.9477 14.5 16.5 14.0523 16.5 13.5V10.5C16.5 9.94772 16.9477 9.5 17.5 9.5ZM3.5 16.5H6.5C7.05228 16.5 7.5 16.9477 7.5 17.5V20.5C7.5 21.0523 7.05228 21.5 6.5 21.5H3.5C2.94772 21.5 2.5 21.0523 2.5 20.5V17.5C2.5 16.9477 2.94772 16.5 3.5 16.5ZM10.5 16.5H13.5C14.0523 16.5 14.5 16.9477 14.5 17.5V20.5C14.5 21.0523 14.0523 21.5 13.5 21.5H10.5C9.94772 21.5 9.5 21.0523 9.5 20.5V17.5C9.5 16.9477 9.94772 16.5 10.5 16.5ZM17.5 16.5H20.5C21.0523 16.5 21.5 16.9477 21.5 17.5V20.5C21.5 21.0523 21.0523 21.5 20.5 21.5H17.5C16.9477 21.5 16.5 21.0523 16.5 20.5V17.5C16.5 16.9477 16.9477 16.5 17.5 16.5Z" fill="#8F97A4"/>
</svg>
