<svg width="215" height="103" viewBox="0 0 215 103" fill="none" xmlns="http://www.w3.org/2000/svg">
<path d="M209.594 23.3386C209.168 17.3108 206.387 11.6976 201.863 7.73384C197.339 3.77009 191.442 1.7805 185.471 2.20269L22.7205 13.7089C16.7488 14.1311 11.1909 16.9305 7.2696 21.4913C3.34829 26.0521 1.38477 32.0008 1.81092 38.0286C2.12091 42.4106 3.67929 46.6104 6.29844 50.1223C8.91758 53.6341 12.4859 56.3083 16.5734 57.8226C12.7396 59.897 9.58303 63.0466 7.48403 66.892C5.38504 70.7374 4.43304 75.1147 4.74267 79.4968C5.16882 85.5246 7.94975 91.1378 12.4737 95.1015C16.9977 99.0653 22.8942 101.055 28.8659 100.633L191.616 89.1265C197.588 88.7043 203.146 85.9049 207.067 81.3441C210.988 76.7833 212.952 70.8346 212.526 64.8068C212.216 60.4248 210.657 56.225 208.038 52.7131C205.419 49.2013 201.851 46.5271 197.763 45.0128C201.597 42.9384 204.754 39.7888 206.853 35.9434C208.952 32.0979 209.904 27.7207 209.594 23.3386Z" fill="black"/>
<path d="M56.686 30.6527L57.109 36.6363L53.7848 36.8713L56.652 77.4271L50.0035 77.8972L47.1363 37.3414L43.812 37.5764L43.389 31.5927L56.686 30.6527ZM74.3548 36.3525L76.6674 69.0631C76.9964 73.717 74.1261 76.5926 69.8711 76.8935C65.6161 77.1943 62.3698 74.7511 62.0407 70.0972L59.7281 37.3866C59.4038 32.7991 62.4024 29.8476 66.5909 29.5515C70.7795 29.2554 74.0258 31.6986 74.3548 36.3525ZM67.6828 36.4901C67.6358 35.8253 67.4129 35.5069 66.9475 35.5398C66.4821 35.5727 66.3061 35.9193 66.3531 36.5841L68.7127 69.9595C68.7597 70.6244 68.9827 70.9427 69.4481 70.9098C69.9135 70.8769 70.0894 70.5304 70.0424 69.8655L67.6828 36.4901ZM91.8666 34.8472L92.8537 48.809C93.1827 53.4629 90.9303 55.6267 86.0104 55.9745L85.3455 56.0215L86.7086 75.3022L80.0601 75.7722L76.7699 29.2328L84.1497 28.711C89.0031 28.3679 91.5376 30.1932 91.8666 34.8472ZM85.2416 35.6496C85.1946 34.9848 84.9716 34.6665 84.5063 34.6994L83.8414 34.7464L84.9225 50.0379L85.5873 49.9909C86.0527 49.958 86.2287 49.6115 86.1817 48.9466L85.2416 35.6496ZM118.606 58.6814L119.127 66.0612C119.457 70.7151 116.586 73.5908 112.331 73.8916C108.143 74.1877 104.83 71.7492 104.501 67.0953L103.833 57.6544L110.482 57.1844L111.173 66.9577C111.22 67.6225 111.443 67.9408 111.908 67.9079C112.374 67.875 112.549 67.5285 112.502 66.8637L111.957 59.1514C111.76 56.3591 109.834 53.6889 107.827 50.824C105.455 47.5172 102.865 43.9585 102.564 39.7035L102.188 34.3847C101.864 29.7973 104.862 26.8458 109.051 26.5496C113.24 26.2535 116.486 28.6967 116.815 33.3506L117.337 40.7305L110.688 41.2005L110.143 33.4882C110.096 32.8234 109.873 32.5051 109.408 32.538C108.942 32.5709 108.766 32.9174 108.813 33.5823L109.213 39.2335C109.41 42.0258 111.336 44.696 113.409 47.5562C115.781 50.863 118.305 54.4263 118.606 58.6814ZM134.2 31.8543L135.187 45.8161C135.516 50.47 133.264 52.6338 128.344 52.9816L127.679 53.0286L129.042 72.3093L122.393 72.7793L119.103 26.2399L126.483 25.7181C131.336 25.375 133.871 27.2003 134.2 31.8543ZM127.575 32.6567C127.528 31.9919 127.305 31.6736 126.84 31.7065L126.175 31.7535L127.256 47.045L127.921 46.998C128.386 46.9651 128.562 46.6186 128.515 45.9537L127.575 32.6567ZM151.749 30.8808L154.062 63.5914C154.391 68.2453 151.521 71.1209 147.266 71.4218C143.011 71.7226 139.764 69.2794 139.435 64.6255L137.123 31.9149C136.798 27.3274 139.797 24.3759 143.985 24.0798C148.174 23.7837 151.42 26.2269 151.749 30.8808ZM145.077 31.0184C145.03 30.3536 144.807 30.0353 144.342 30.0682C143.877 30.1011 143.701 30.4476 143.748 31.1124L146.107 64.4879C146.154 65.1527 146.377 65.471 146.843 65.4381C147.308 65.4052 147.484 65.0587 147.437 64.3939L145.077 31.0184ZM167.129 22.8445L167.552 28.8282L164.228 29.0632L167.095 69.619L160.446 70.089L157.579 29.5332L154.255 29.7682L153.832 23.7846L167.129 22.8445Z" fill="#F3CCF7"/>
<path d="M191.247 46.4124C186.162 48.138 184.74 49.8212 183.862 55.1167C183.842 55.2321 183.784 55.3375 183.697 55.4165C183.61 55.4954 183.5 55.5434 183.383 55.553C183.267 55.5625 183.15 55.5331 183.052 55.4692C182.953 55.4053 182.879 55.3107 182.84 55.2001C181.114 50.1174 179.43 48.6879 174.132 47.8104C174.016 47.7902 173.911 47.7323 173.832 47.6458C173.753 47.5593 173.705 47.449 173.695 47.3322C173.686 47.2155 173.715 47.0989 173.779 47.0007C173.843 46.9025 173.938 46.8282 174.049 46.7896C179.134 45.064 180.564 43.38 181.442 38.0845C181.463 37.9691 181.521 37.8637 181.607 37.7848C181.694 37.7058 181.804 37.6578 181.921 37.6483C182.038 37.6387 182.154 37.6682 182.253 37.7321C182.351 37.7959 182.425 37.8905 182.464 38.0011C184.19 43.0839 185.866 44.5141 191.164 45.3915C191.279 45.4117 191.385 45.4696 191.464 45.5562C191.543 45.6427 191.591 45.753 191.6 45.8697C191.61 45.9865 191.58 46.1031 191.516 46.2013C191.452 46.2995 191.358 46.3737 191.247 46.4124Z" fill="#F3CCF7"/>
<path d="M39.2053 56.5579C34.12 58.2835 32.6982 59.9667 31.8199 65.2622C31.7997 65.3776 31.7418 65.483 31.6552 65.562C31.5686 65.6409 31.4583 65.6889 31.3415 65.6985C31.2247 65.708 31.108 65.6786 31.0098 65.6147C30.9115 65.5509 30.8373 65.4562 30.7986 65.3456C29.0726 60.2629 27.3879 58.8334 22.09 57.9559C21.9746 57.9357 21.8691 57.8778 21.7901 57.7913C21.7112 57.7048 21.6632 57.5945 21.6536 57.4777C21.6441 57.361 21.6736 57.2444 21.7375 57.1462C21.8013 57.048 21.896 56.9737 22.0067 56.9351C27.0919 55.2095 28.5222 53.5255 29.4005 48.23C29.4207 48.1147 29.4787 48.0092 29.5652 47.9303C29.6518 47.8513 29.7622 47.8033 29.879 47.7938C29.9958 47.7842 30.1124 47.8137 30.2107 47.8776C30.3089 47.9414 30.3832 48.036 30.4218 48.1466C32.1479 53.2294 33.824 54.6596 39.1219 55.5371C39.2373 55.5572 39.3428 55.6151 39.4218 55.7017C39.5008 55.7882 39.5488 55.8985 39.5583 56.0152C39.5678 56.132 39.5384 56.2486 39.4745 56.3468C39.4106 56.445 39.3159 56.5192 39.2053 56.5579Z" fill="#F3CCF7"/>
</svg>
