<svg width="16" height="14" viewBox="0 0 16 14" fill="none" xmlns="http://www.w3.org/2000/svg">
<g id="Group 40">
<path id="Vector (Stroke)" opacity="0.5" fill-rule="evenodd" clip-rule="evenodd" d="M8.00022 1.54541C8.40188 1.54541 8.7275 1.87102 8.7275 2.27268L8.7275 12.4545C8.7275 12.8562 8.40188 13.1818 8.00022 13.1818C7.59856 13.1818 7.27295 12.8562 7.27295 12.4545L7.27295 2.27268C7.27295 1.87102 7.59856 1.54541 8.00022 1.54541Z" fill="black"/>
<path id="Subtract" fill-rule="evenodd" clip-rule="evenodd" d="M1.45455 2.97327V11.5064C2.25284 11.0908 3.42049 10.6364 4.72727 10.6364C6.01467 10.6364 6.80673 11.0777 7.36341 11.523C7.49433 11.6278 7.60982 11.7307 7.70535 11.8162L7.71951 11.8289C7.81334 11.9129 7.88034 11.973 7.94296 12.023C7.96579 12.0413 7.98469 12.0554 8 12.0662C8.01532 12.0554 8.03421 12.0413 8.05704 12.023C8.11966 11.973 8.18666 11.9129 8.28049 11.8289L8.29465 11.8162C8.39018 11.7307 8.50567 11.6278 8.63659 11.523C9.19327 11.0777 9.98533 10.6364 11.2727 10.6364C12.5795 10.6364 13.7472 11.0908 14.5455 11.5064V2.97327C13.8492 2.59968 12.352 1.90914 10.9091 1.90914C9.99525 1.90914 9.52266 2.18718 9.23939 2.42416C9.10729 2.53468 9.01083 2.63969 8.90363 2.75641C8.88097 2.78107 8.85784 2.80626 8.83378 2.83214C8.775 2.89536 8.68499 2.99084 8.58139 3.06998C8.48054 3.14701 8.27887 3.27812 8 3.27812C7.72113 3.27812 7.51946 3.14701 7.41861 3.06998C7.31501 2.99084 7.225 2.89536 7.16622 2.83214C7.14217 2.80626 7.11903 2.78107 7.09637 2.75641C6.98917 2.63969 6.89271 2.53468 6.76061 2.42416C6.47734 2.18718 6.00475 1.90914 5.09091 1.90914C3.64798 1.90914 2.15084 2.59968 1.45455 2.97327ZM0.72889 1.71203C1.44991 1.32144 3.24243 0.45459 5.09091 0.45459C6.35889 0.45459 7.15902 0.80708 7.69394 1.25459C7.81019 1.35185 7.91308 1.45653 8 1.5455C8.08692 1.45653 8.18981 1.4058 8.30606 1.30855C8.84098 0.861035 9.64111 0.45459 10.9091 0.45459C12.7576 0.45459 14.5501 1.32144 15.2711 1.71203C15.7438 1.96811 16 2.45698 16 2.9531V12.0616C16 12.5289 15.7168 12.8772 15.396 13.0458C15.0786 13.2127 14.6491 13.2461 14.272 13.0195C13.6029 12.6177 12.4846 12.091 11.2727 12.091C10.3783 12.091 9.89764 12.3769 9.54523 12.6589C9.44888 12.7359 9.35982 12.8149 9.26501 12.8998C9.25749 12.9065 9.24985 12.9134 9.24211 12.9203C9.15817 12.9956 9.06157 13.0821 8.96569 13.1589C8.76374 13.3204 8.43905 13.5455 8 13.5455C7.56095 13.5455 7.23626 13.3204 7.03431 13.1589C6.93843 13.0821 6.84183 12.9956 6.75789 12.9203C6.75015 12.9134 6.74251 12.9065 6.73499 12.8998C6.64018 12.8149 6.55112 12.7359 6.45477 12.6589C6.10236 12.3769 5.6217 12.091 4.72727 12.091C3.51542 12.091 2.39711 12.6177 1.728 13.0195C1.35086 13.2461 0.92145 13.2127 0.603987 13.0458C0.283223 12.8772 0 12.5289 0 12.0616V2.9531C0 2.45698 0.256167 1.96811 0.72889 1.71203Z" fill="black"/>
</g>
</svg>
