<?xml version="1.0" encoding="UTF-8"?>
<svg id="Layer_1" xmlns="http://www.w3.org/2000/svg" version="1.1" viewBox="0 0 25 24">
  <!-- Generator: Adobe Illustrator 29.6.1, SVG Export Plug-In . SVG Version: 2.1.1 Build 9)  -->
  <defs>
    <style>
      .st0 {
        fill: #b8c3c9;
      }
    </style>
  </defs>
  <path class="st0" d="M3.75,6c0-.83.67-1.5,1.5-1.5s1.5.67,1.5,1.5-.67,1.5-1.5,1.5-1.5-.67-1.5-1.5Z"/>
  <path class="st0" d="M10.25,5c-.55,0-1,.45-1,1s.45,1,1,1h9c.55,0,1-.45,1-1s-.45-1-1-1h-9Z"/>
  <path class="st0" d="M10.25,11c-.55,0-1,.45-1,1s.45,1,1,1h9c.55,0,1-.45,1-1s-.45-1-1-1h-9Z"/>
  <path class="st0" d="M9.25,18c0-.55.45-1,1-1h9c.55,0,1,.45,1,1s-.45,1-1,1h-9c-.55,0-1-.45-1-1Z"/>
  <path class="st0" d="M5.25,10.5c-.83,0-1.5.67-1.5,1.5s.67,1.5,1.5,1.5,1.5-.67,1.5-1.5-.67-1.5-1.5-1.5Z"/>
  <path class="st0" d="M5.25,16.5c-.83,0-1.5.67-1.5,1.5s.67,1.5,1.5,1.5,1.5-.67,1.5-1.5-.67-1.5-1.5-1.5Z"/>
</svg>