<?xml version="1.0" encoding="UTF-8"?>
<!--Generator: Apple Native CoreSVG 341-->
<!DOCTYPE svg
PUBLIC "-//W3C//DTD SVG 1.1//EN"
       "http://www.w3.org/Graphics/SVG/1.1/DTD/svg11.dtd">
<svg version="1.1" xmlns="http://www.w3.org/2000/svg" xmlns:xlink="http://www.w3.org/1999/xlink" viewBox="0 0 3300 2200">
 <!--glyph: "", point size: 100.0, font version: "20.0d10e1", template writer version: "138.0.0"-->
 <style>.monochrome-0 {-sfsymbols-motion-group:1;-sfsymbols-layer-tags:554326ed703a3e90}
.monochrome-1 {-sfsymbols-motion-group:0;-sfsymbols-layer-tags:554326ed703a3e90}

.multicolor-0:tintColor {-sfsymbols-motion-group:1;-sfsymbols-layer-tags:554326ed703a3e90}
.multicolor-1:tintColor {-sfsymbols-motion-group:0;-sfsymbols-layer-tags:554326ed703a3e90}

.hierarchical-0:secondary {-sfsymbols-motion-group:1;-sfsymbols-layer-tags:554326ed703a3e90}
.hierarchical-1:primary {-sfsymbols-motion-group:0;-sfsymbols-layer-tags:554326ed703a3e90}

.SFSymbolsPreviewWireframe {fill:none;opacity:1.0;stroke:black;stroke-width:0.5}
</style>
 <g id="Notes">
  <rect height="2200" id="artboard" style="fill:white;opacity:1" width="3300" x="0" y="0"/>
  <line style="fill:none;stroke:black;opacity:1;stroke-width:0.5;" x1="263" x2="3036" y1="292" y2="292"/>
  <text style="stroke:none;fill:black;font-family:sans-serif;font-size:13;font-weight:bold;" transform="matrix(1 0 0 1 263 322)">Weight/Scale Variations</text>
  <text style="stroke:none;fill:black;font-family:sans-serif;font-size:13;text-anchor:middle;" transform="matrix(1 0 0 1 559.711 322)">Ultralight</text>
  <text style="stroke:none;fill:black;font-family:sans-serif;font-size:13;text-anchor:middle;" transform="matrix(1 0 0 1 856.422 322)">Thin</text>
  <text style="stroke:none;fill:black;font-family:sans-serif;font-size:13;text-anchor:middle;" transform="matrix(1 0 0 1 1153.13 322)">Light</text>
  <text style="stroke:none;fill:black;font-family:sans-serif;font-size:13;text-anchor:middle;" transform="matrix(1 0 0 1 1449.84 322)">Regular</text>
  <text style="stroke:none;fill:black;font-family:sans-serif;font-size:13;text-anchor:middle;" transform="matrix(1 0 0 1 1746.56 322)">Medium</text>
  <text style="stroke:none;fill:black;font-family:sans-serif;font-size:13;text-anchor:middle;" transform="matrix(1 0 0 1 2043.27 322)">Semibold</text>
  <text style="stroke:none;fill:black;font-family:sans-serif;font-size:13;text-anchor:middle;" transform="matrix(1 0 0 1 2339.98 322)">Bold</text>
  <text style="stroke:none;fill:black;font-family:sans-serif;font-size:13;text-anchor:middle;" transform="matrix(1 0 0 1 2636.69 322)">Heavy</text>
  <text style="stroke:none;fill:black;font-family:sans-serif;font-size:13;text-anchor:middle;" transform="matrix(1 0 0 1 2933.4 322)">Black</text>
  <line style="fill:none;stroke:black;opacity:1;stroke-width:0.5;" x1="263" x2="3036" y1="1903" y2="1903"/>
  <g transform="matrix(0.2 0 0 0.2 263 1933)">
   <path d="m46.2402 4.15039c21.7773 0 39.4531-17.627 39.4531-39.4043s-17.6758-39.4043-39.4531-39.4043c-21.7285 0-39.4043 17.627-39.4043 39.4043s17.6758 39.4043 39.4043 39.4043Zm0-7.42188c-17.6758 0-31.9336-14.3066-31.9336-31.9824s14.2578-31.9824 31.9336-31.9824 31.9824 14.3066 31.9824 31.9824-14.3066 31.9824-31.9824 31.9824Zm-17.9688-31.9824c0 2.14844 1.51367 3.61328 3.75977 3.61328h10.498v10.5957c0 2.19727 1.46484 3.71094 3.61328 3.71094 2.24609 0 3.71094-1.51367 3.71094-3.71094v-10.5957h10.5957c2.19727 0 3.71094-1.46484 3.71094-3.61328 0-2.19727-1.51367-3.71094-3.71094-3.71094h-10.5957v-10.5469c0-2.24609-1.46484-3.75977-3.71094-3.75977-2.14844 0-3.61328 1.51367-3.61328 3.75977v10.5469h-10.498c-2.24609 0-3.75977 1.51367-3.75977 3.71094Z"/>
  </g>
  <g transform="matrix(0.2 0 0 0.2 281.506 1933)">
   <path d="m58.5449 14.5508c27.4902 0 49.8047-22.3145 49.8047-49.8047s-22.3145-49.8047-49.8047-49.8047-49.8047 22.3145-49.8047 49.8047 22.3145 49.8047 49.8047 49.8047Zm0-8.30078c-22.9492 0-41.5039-18.5547-41.5039-41.5039s18.5547-41.5039 41.5039-41.5039 41.5039 18.5547 41.5039 41.5039-18.5547 41.5039-41.5039 41.5039Zm-22.6562-41.5039c0 2.39258 1.66016 4.00391 4.15039 4.00391h14.3555v14.4043c0 2.44141 1.66016 4.15039 4.05273 4.15039 2.44141 0 4.15039-1.66016 4.15039-4.15039v-14.4043h14.4043c2.44141 0 4.15039-1.61133 4.15039-4.00391 0-2.44141-1.70898-4.15039-4.15039-4.15039h-14.4043v-14.3555c0-2.49023-1.70898-4.19922-4.15039-4.19922-2.39258 0-4.05273 1.70898-4.05273 4.19922v14.3555h-14.3555c-2.49023 0-4.15039 1.70898-4.15039 4.15039Z"/>
  </g>
  <g transform="matrix(0.2 0 0 0.2 304.924 1933)">
   <path d="m74.8535 28.3203c35.1074 0 63.623-28.4668 63.623-63.5742s-28.5156-63.623-63.623-63.623-63.5742 28.5156-63.5742 63.623 28.4668 63.5742 63.5742 63.5742Zm0-9.08203c-30.127 0-54.4922-24.3652-54.4922-54.4922s24.3652-54.4922 54.4922-54.4922 54.4922 24.3652 54.4922 54.4922-24.3652 54.4922-54.4922 54.4922Zm-28.8574-54.4922c0 2.58789 1.85547 4.39453 4.58984 4.39453h19.7266v19.7754c0 2.68555 1.85547 4.58984 4.44336 4.58984 2.68555 0 4.54102-1.85547 4.54102-4.58984v-19.7754h19.7754c2.68555 0 4.58984-1.80664 4.58984-4.39453 0-2.73438-1.85547-4.58984-4.58984-4.58984h-19.7754v-19.7266c0-2.73438-1.85547-4.63867-4.54102-4.63867-2.58789 0-4.44336 1.9043-4.44336 4.63867v19.7266h-19.7266c-2.73438 0-4.58984 1.85547-4.58984 4.58984Z"/>
  </g>
  <text style="stroke:none;fill:black;font-family:sans-serif;font-size:13;font-weight:bold;" transform="matrix(1 0 0 1 263 1953)">Design Variations</text>
  <text style="stroke:none;fill:black;font-family:sans-serif;font-size:13;" transform="matrix(1 0 0 1 263 1971)">Symbols are supported in up to nine weights and three scales.</text>
  <text style="stroke:none;fill:black;font-family:sans-serif;font-size:13;" transform="matrix(1 0 0 1 263 1989)">For optimal layout with text and other symbols, vertically align</text>
  <text style="stroke:none;fill:black;font-family:sans-serif;font-size:13;" transform="matrix(1 0 0 1 263 2007)">symbols with the adjacent text.</text>
  <line style="fill:none;stroke:#00AEEF;stroke-width:0.5;opacity:1.0;" x1="776" x2="776" y1="1919" y2="1933"/>
  <g transform="matrix(0.2 0 0 0.2 776 1933)">
   <path d="m16.5527 0.78125c2.58789 0 3.85742-0.976562 4.78516-3.71094l6.29883-17.2363h28.8086l6.29883 17.2363c0.927734 2.73438 2.19727 3.71094 4.73633 3.71094 2.58789 0 4.24805-1.5625 4.24805-4.00391 0-0.830078-0.146484-1.61133-0.537109-2.63672l-22.9004-60.9863c-1.12305-2.97852-3.125-4.49219-6.25-4.49219-3.02734 0-5.07812 1.46484-6.15234 4.44336l-22.9004 61.084c-0.390625 1.02539-0.537109 1.80664-0.537109 2.63672 0 2.44141 1.5625 3.95508 4.10156 3.95508Zm13.4766-28.3691 11.8652-32.8613h0.244141l11.8652 32.8613Z"/>
  </g>
  <line style="fill:none;stroke:#00AEEF;stroke-width:0.5;opacity:1.0;" x1="792.836" x2="792.836" y1="1919" y2="1933"/>
  <text style="stroke:none;fill:black;font-family:sans-serif;font-size:13;font-weight:bold;" transform="matrix(1 0 0 1 776 1953)">Margins</text>
  <text style="stroke:none;fill:black;font-family:sans-serif;font-size:13;" transform="matrix(1 0 0 1 776 1971)">Leading and trailing margins on the left and right side of each symbol</text>
  <text style="stroke:none;fill:black;font-family:sans-serif;font-size:13;" transform="matrix(1 0 0 1 776 1989)">can be adjusted by modifying the x-location of the margin guidelines.</text>
  <text style="stroke:none;fill:black;font-family:sans-serif;font-size:13;" transform="matrix(1 0 0 1 776 2007)">Modifications are automatically applied proportionally to all</text>
  <text style="stroke:none;fill:black;font-family:sans-serif;font-size:13;" transform="matrix(1 0 0 1 776 2025)">scales and weights.</text>
  <g transform="matrix(0.2 0 0 0.2 1289 1933)">
   <path d="m14.209 9.32617 8.49609 8.54492c4.29688 4.3457 9.22852 4.05273 13.8672-1.07422l53.4668-58.9355-4.83398-4.88281-53.0762 58.3984c-1.75781 2.00195-3.41797 2.49023-5.76172 0.146484l-5.85938-5.81055c-2.34375-2.29492-1.80664-4.00391 0.195312-5.81055l57.373-54.0039-4.88281-4.83398-57.959 54.4434c-4.93164 4.58984-5.32227 9.47266-1.02539 13.8184Zm32.0801-90.9668c-2.09961 2.05078-2.24609 4.93164-1.07422 6.88477 1.17188 1.80664 3.4668 2.97852 6.68945 2.14844 7.32422-1.70898 14.9414-2.00195 22.0703 2.68555l-2.92969 7.27539c-1.70898 4.15039-0.830078 7.08008 1.85547 9.81445l11.4746 11.5723c2.44141 2.44141 4.49219 2.53906 7.32422 2.05078l5.32227-0.976562 3.32031 3.36914-0.195312 2.7832c-0.195312 2.49023 0.439453 4.39453 2.88086 6.78711l3.80859 3.71094c2.39258 2.39258 5.46875 2.53906 7.8125 0.195312l14.5508-14.5996c2.34375-2.34375 2.24609-5.32227-0.146484-7.71484l-3.85742-3.80859c-2.39258-2.39258-4.24805-3.17383-6.64062-2.97852l-2.88086 0.244141-3.22266-3.17383 1.2207-5.61523c0.634766-2.83203-0.146484-5.0293-3.07617-7.95898l-10.9863-10.9375c-16.6992-16.6016-38.8672-16.2109-53.3203-1.75781Zm7.4707 1.85547c12.1582-8.88672 28.6133-7.37305 39.7461 3.75977l12.1582 12.0605c1.17188 1.17188 1.36719 2.09961 1.02539 3.80859l-1.61133 7.42188 7.51953 7.42188 4.93164-0.292969c1.26953-0.0488281 1.66016 0.0488281 2.63672 1.02539l2.88086 2.88086-12.207 12.207-2.88086-2.88086c-0.976562-0.976562-1.12305-1.36719-1.07422-2.68555l0.341797-4.88281-7.4707-7.42188-7.61719 1.26953c-1.61133 0.341797-2.34375 0.195312-3.56445-0.976562l-10.0098-10.0098c-1.26953-1.17188-1.41602-2.00195-0.634766-3.85742l4.39453-10.4492c-7.8125-7.27539-17.9688-10.4004-28.125-7.42188-0.78125 0.195312-1.07422-0.439453-0.439453-0.976562Z"/>
  </g>
  <text style="stroke:none;fill:black;font-family:sans-serif;font-size:13;font-weight:bold;" transform="matrix(1 0 0 1 1289 1953)">Exporting</text>
  <text style="stroke:none;fill:black;font-family:sans-serif;font-size:13;" transform="matrix(1 0 0 1 1289 1971)">Symbols should be outlined when exporting to ensure the</text>
  <text style="stroke:none;fill:black;font-family:sans-serif;font-size:13;" transform="matrix(1 0 0 1 1289 1989)">design is preserved when submitting to Xcode.</text>
  <text id="template-version" style="stroke:none;fill:black;font-family:sans-serif;font-size:13;text-anchor:end;" transform="matrix(1 0 0 1 3036 1933)">Template v.6.0</text>
  <text style="stroke:none;fill:black;font-family:sans-serif;font-size:13;text-anchor:end;" transform="matrix(1 0 0 1 3036 1951)">Requires Xcode 16 or greater</text>
  <text id="descriptive-name" style="stroke:none;fill:black;font-family:sans-serif;font-size:13;text-anchor:end;" transform="matrix(1 0 0 1 3036 1969)">Generated from arrow.2.squarepath.checkmark</text>
  <text style="stroke:none;fill:black;font-family:sans-serif;font-size:13;text-anchor:end;" transform="matrix(1 0 0 1 3036 1987)">Typeset at 100.0 points</text>
  <text style="stroke:none;fill:black;font-family:sans-serif;font-size:13;" transform="matrix(1 0 0 1 263 726)">Small</text>
  <text style="stroke:none;fill:black;font-family:sans-serif;font-size:13;" transform="matrix(1 0 0 1 263 1156)">Medium</text>
  <text style="stroke:none;fill:black;font-family:sans-serif;font-size:13;" transform="matrix(1 0 0 1 263 1586)">Large</text>
 </g>
 <g id="Guides">
  <g id="H-reference" style="fill:#27AAE1;stroke:none;" transform="matrix(1 0 0 1 339 696)">
   <path d="M0.993654 0L3.63775 0L29.3281-67.1323L30.0303-67.1323L30.0303-70.459L28.1226-70.459ZM11.6885-24.4799L46.9815-24.4799L46.2315-26.7285L12.4385-26.7285ZM55.1196 0L57.7637 0L30.6382-70.459L29.4326-70.459L29.4326-67.1323Z"/>
  </g>
  <line id="Baseline-S" style="fill:none;stroke:#27AAE1;opacity:1;stroke-width:0.5;" x1="263" x2="3036" y1="696" y2="696"/>
  <line id="Capline-S" style="fill:none;stroke:#27AAE1;opacity:1;stroke-width:0.5;" x1="263" x2="3036" y1="625.541" y2="625.541"/>
  <g id="H-reference" style="fill:#27AAE1;stroke:none;" transform="matrix(1 0 0 1 339 1126)">
   <path d="M0.993654 0L3.63775 0L29.3281-67.1323L30.0303-67.1323L30.0303-70.459L28.1226-70.459ZM11.6885-24.4799L46.9815-24.4799L46.2315-26.7285L12.4385-26.7285ZM55.1196 0L57.7637 0L30.6382-70.459L29.4326-70.459L29.4326-67.1323Z"/>
  </g>
  <line id="Baseline-M" style="fill:none;stroke:#27AAE1;opacity:1;stroke-width:0.5;" x1="263" x2="3036" y1="1126" y2="1126"/>
  <line id="Capline-M" style="fill:none;stroke:#27AAE1;opacity:1;stroke-width:0.5;" x1="263" x2="3036" y1="1055.54" y2="1055.54"/>
  <g id="H-reference" style="fill:#27AAE1;stroke:none;" transform="matrix(1 0 0 1 339 1556)">
   <path d="M0.993654 0L3.63775 0L29.3281-67.1323L30.0303-67.1323L30.0303-70.459L28.1226-70.459ZM11.6885-24.4799L46.9815-24.4799L46.2315-26.7285L12.4385-26.7285ZM55.1196 0L57.7637 0L30.6382-70.459L29.4326-70.459L29.4326-67.1323Z"/>
  </g>
  <line id="Baseline-L" style="fill:none;stroke:#27AAE1;opacity:1;stroke-width:0.5;" x1="263" x2="3036" y1="1556" y2="1556"/>
  <line id="Capline-L" style="fill:none;stroke:#27AAE1;opacity:1;stroke-width:0.5;" x1="263" x2="3036" y1="1485.54" y2="1485.54"/>
  <line id="right-margin-Black-S" style="fill:none;stroke:#00AEEF;stroke-width:0.5;opacity:1.0;" x1="2995.9" x2="2995.9" y1="600.785" y2="720.121"/>
  <line id="left-margin-Black-S" style="fill:none;stroke:#00AEEF;stroke-width:0.5;opacity:1.0;" x1="2870.9" x2="2870.9" y1="600.785" y2="720.121"/>
  <line id="right-margin-Regular-S" style="fill:none;stroke:#00AEEF;stroke-width:0.5;opacity:1.0;" x1="1507.19" x2="1507.19" y1="600.785" y2="720.121"/>
  <line id="left-margin-Regular-S" style="fill:none;stroke:#00AEEF;stroke-width:0.5;opacity:1.0;" x1="1392.5" x2="1392.5" y1="600.785" y2="720.121"/>
  <line id="right-margin-Ultralight-S" style="fill:none;stroke:#00AEEF;stroke-width:0.5;opacity:1.0;" x1="615.902" x2="615.902" y1="600.785" y2="720.121"/>
  <line id="left-margin-Ultralight-S" style="fill:none;stroke:#00AEEF;stroke-width:0.5;opacity:1.0;" x1="503.52" x2="503.52" y1="600.785" y2="720.121"/>
 </g>
 <g id="Symbols">
  <g id="Black-S" transform="matrix(1 0 0 1 2870.9 696)">
   <path class="monochrome-0 multicolor-0:tintColor hierarchical-0:secondary SFSymbolsPreviewWireframe" d="M11.9629-41.0645C14.8438-38.1348 18.9941-38.0859 21.9727-41.0645L22.3633-41.4551L26.3184-46.4355L26.3184-12.3047C26.3184-2.73438 31.9824 2.92969 41.5527 2.92969L65.332 2.92969C69.4824 2.92969 72.5098-0.0488281 72.5098-4.15039C72.5098-8.25195 69.4824-11.2305 65.332-11.2305L43.7988-11.2305C41.5527-11.2305 40.4785-12.1094 40.4785-14.5508L40.4785-46.4355L44.4336-41.4551L44.8242-41.0645C47.8027-38.0859 51.9531-38.1348 54.834-41.0645C57.7148-43.9941 57.8125-48.0957 54.834-51.0742L40.918-64.9902C36.1816-69.7266 30.5664-69.6777 25.8789-64.9902L11.9629-51.0742C8.9844-48.0957 9.08205-43.9941 11.9629-41.0645ZM52.4902-66.2598C52.4902-62.1582 55.5176-59.1797 59.668-59.1797L81.2012-59.1797C83.4473-59.1797 84.5215-58.3008 84.5215-55.8594L84.5215-23.9746L80.5664-28.9551L80.1758-29.3457C77.1973-32.3242 73.0469-32.2754 70.166-29.3457C67.2852-26.416 67.1875-22.3145 70.166-19.3359L84.082-5.41992C88.8184-0.683594 94.4336-0.732422 99.1211-5.41992L113.037-19.3359C116.016-22.3145 115.918-26.416 113.037-29.3457C110.156-32.2754 106.006-32.3242 103.027-29.3457L102.637-28.9551L98.6816-23.9746L98.6816-58.1055C98.6816-67.6758 93.0176-73.3398 83.4473-73.3398L59.668-73.3398C55.5176-73.3398 52.4902-70.3613 52.4902-66.2598Z"/>
   <path class="monochrome-1 multicolor-1:tintColor hierarchical-1:primary SFSymbolsPreviewWireframe" d="M59.0917-16.8945C60.996-16.8945 62.8026-17.9199 63.8769-19.5312L79.1601-42.4316C79.9413-43.5546 80.2343-44.6777 80.2343-45.6542C80.2343-48.4863 77.744-50.5859 74.9608-50.5859C73.0565-50.5859 71.5917-49.6581 70.371-47.6562L59.0917-29.3945L54.0136-35.0585C52.9882-36.1816 51.8163-36.8652 50.2538-36.8652C47.4218-36.8652 45.0292-34.6191 45.0292-31.787C45.0292-30.4687 45.4198-29.4921 46.5429-28.1738L54.2089-19.3847C55.5272-17.871 57.0897-16.8945 59.0917-16.8945Z"/>
  </g>
  <g id="Regular-S" transform="matrix(1 0 0 1 1392.5 696)">
   <path class="monochrome-0 multicolor-0:tintColor hierarchical-0:secondary SFSymbolsPreviewWireframe" d="M10.8399-44.2383C12.3536-42.7734 14.4044-42.9199 15.9181-44.3359L19.1896-47.6074L24.3165-53.0762L24.3165-11.9141C24.3165-3.71094 28.4669 0.390625 36.7677 0.390625L66.5528 0.390625C69.0919 0.390625 70.5567-0.878906 70.5079-3.125C70.4591-5.37109 69.0919-6.68945 66.5528-6.68945L36.8653-6.68945C33.3497-6.68945 31.3478-8.54492 31.3478-12.2559L31.3478-53.1738L36.5235-47.6074L39.795-44.3359C41.3087-42.9199 43.3595-42.7734 44.8731-44.2383C46.338-45.7031 46.2892-47.9004 44.7755-49.3164L32.2755-61.7676C29.4435-64.5996 26.2696-64.5996 23.3888-61.7676L10.9376-49.3164C9.42388-47.9004 9.37505-45.7031 10.8399-44.2383ZM44.1896-67.2363C44.1896-64.9902 45.5567-63.7207 48.0958-63.7207L77.8321-63.7207C81.3478-63.7207 83.3497-61.8164 83.3497-58.1543L83.3497-17.2363L78.1739-22.8027L74.9024-26.0254C73.3888-27.4902 71.338-27.6367 69.8243-26.123C68.3595-24.707 68.4083-22.5098 69.922-21.0938L82.3731-8.64258C85.254-5.81055 88.4278-5.81055 91.2599-8.64258L103.76-21.0938C105.273-22.5098 105.322-24.707 103.857-26.123C102.344-27.6367 100.293-27.4902 98.7794-26.0254L95.4591-22.8027L90.381-17.2852L90.381-58.4961C90.381-66.6992 86.2306-70.8008 77.9298-70.8008L48.0958-70.8008C45.5567-70.8008 44.1407-69.5312 44.1896-67.2363Z"/>
   <path class="monochrome-1 multicolor-1:tintColor hierarchical-1:primary SFSymbolsPreviewWireframe" d="M53.1676-17.289C54.6325-17.289 55.8532-17.9726 56.6832-19.3398L73.4801-45.9023C74.0172-46.7812 74.5543-47.7578 74.5543-48.7344C74.5543-50.6875 72.8453-51.9082 70.9899-51.9082C69.8668-51.9082 68.7926-51.2734 68.0114-49.9551L52.9723-25.6387L46.234-34.7207C45.2086-36.1367 44.1832-36.4785 43.0114-36.4785C41.1071-36.4785 39.6422-34.9648 39.6422-33.0117C39.6422-32.084 40.0328-31.1562 40.6188-30.3262L49.4078-19.3398C50.5309-17.875 51.7028-17.289 53.1676-17.289Z"/>
  </g>
  <g id="Ultralight-S" transform="matrix(1 0 0 1 503.52 696)">
   <path class="monochrome-0 multicolor-0:tintColor hierarchical-0:secondary SFSymbolsPreviewWireframe" d="M10.1133-42.1494C10.5825-41.6836 11.2256-41.7393 11.7403-42.2471L17.0552-47.5166L25.1792-55.937L25.1792-11.5508C25.1792-5.02782 28.6484-1.562 35.1782-1.562L72.1835-1.562C72.8154-1.562 73.3266-2.05956 73.3232-2.6709C73.3198-3.28224 72.8154-3.78323 72.1835-3.78323L35.2759-3.78323C30.0801-3.78323 27.397-6.45607 27.397-11.6655L27.397-55.9438L35.5698-47.5166L40.8848-42.2471C41.354-41.8301 41.9971-41.6382 42.5117-42.1494C43.023-42.7061 42.9287-43.314 42.4595-43.7764L27.7798-58.4527C26.855-59.3321 25.7246-59.3321 24.8418-58.4527L10.1655-43.7764C9.6963-43.314 9.60206-42.7061 10.1133-42.1494ZM39.0581-67.645C39.0581-67.0337 39.5625-66.5361 40.1944-66.5361L77.1055-66.5361C82.3013-66.5361 84.9844-63.8598 84.9844-58.6538L84.9844-14.3755L76.8115-22.8027L71.4966-28.0688C71.0728-28.4438 70.3843-28.6357 69.915-28.1665C69.3584-27.6133 69.4526-27.0053 69.9673-26.5429L84.6435-11.8667C85.5264-10.9419 86.6568-10.9419 87.5362-11.8667L102.216-26.5429C102.685-27.0053 102.779-27.6133 102.268-28.1665C101.799-28.5903 101.156-28.5801 100.687-28.0688L95.3682-22.8027L87.2022-14.3789L87.2022-58.7686C87.2022-65.2915 83.7329-68.7573 77.2031-68.7573L40.1944-68.7573C39.5625-68.7573 39.0547-68.2598 39.0581-67.645Z"/>
   <path class="monochrome-1 multicolor-1:tintColor hierarchical-1:primary SFSymbolsPreviewWireframe" d="M52.3044-17.2416C52.7702-17.2416 53.0827-17.4711 53.4133-17.7939L73.9338-49.5785C74.0622-49.7763 74.1452-50.1171 74.1452-50.3671C74.1452-50.9125 73.6169-51.4521 73.0783-51.4521C72.6818-51.4521 72.2887-51.1806 72.007-50.8159L52.2453-20.1421L41.1477-32.9931C40.8489-33.3647 40.55-33.5249 40.1047-33.5249C39.5627-33.5249 39.0061-33.0556 39.0061-32.4194C39.0061-32.082 39.1696-31.7446 39.3923-31.4594L51.1784-17.7939C51.5295-17.4189 51.8386-17.2416 52.3044-17.2416Z"/>
  </g>
 </g>
</svg>
