<svg width="16" height="16" viewBox="0 0 16 16" fill="none" xmlns="http://www.w3.org/2000/svg">
<g id="smart-watch-square-play-alternate 1" clip-path="url(#clip0_383_4463)">
<g id="Group">
<path id="Vector" d="M14.0005 3.99998C14.0005 2.89331 13.1005 1.99998 12.0005 1.99998H11.2805C11.2005 1.99998 11.1405 1.94598 11.1205 1.87264L10.6471 0.233309C10.6005 0.0866425 10.4738 -0.0133575 10.3271 -0.0133575H5.66047C5.50714 -0.0200242 5.38047 0.0799758 5.3338 0.226642L4.86714 1.85998C4.84714 1.92664 4.78047 1.97998 4.70047 1.97998H3.98047C2.8738 1.97998 1.98047 2.87331 1.98047 3.97998V11.98C1.98047 13.08 2.8738 13.98 3.98047 13.98H4.70047C4.7738 13.9733 4.8338 14.0266 4.86047 14.1L5.32714 15.7333C5.36714 15.8733 5.4938 15.9733 5.64714 15.9733H10.3138C10.4605 15.9666 10.5871 15.8733 10.6338 15.7266L11.1005 14.0866C11.1205 14.0133 11.1798 13.96 11.2598 13.96H11.9798C13.0798 13.96 13.9798 13.06 13.9798 11.96L14.0005 3.99998ZM12.6671 12C12.6671 12.3666 12.3671 12.6666 12.0005 12.6666H4.00047C3.62714 12.6666 3.3338 12.3666 3.3338 12V3.99998C3.3338 3.62664 3.62714 3.33331 4.00047 3.33331H12.0005C12.3671 3.33331 12.6671 3.62664 12.6671 3.99998V12Z" fill="black"/>
<path id="Vector_2" d="M10.0017 7.49213L7.00166 5.7328C6.76166 5.5928 6.47499 5.5928 6.24166 5.72613L6.24099 5.72547C6.00099 5.85213 5.84766 6.10547 5.84766 6.37213V9.87213C5.84766 10.1388 5.99432 10.3921 6.23432 10.5188C6.46766 10.6455 6.75432 10.6388 6.99432 10.5055L9.99432 8.75213C10.3477 8.54547 10.4677 8.09213 10.261 7.7388C10.1943 7.62547 10.101 7.52547 9.98766 7.46547L10.0017 7.49213Z" fill="black"/>
</g>
</g>
<defs>
<clipPath id="clip0_383_4463">
<rect width="16" height="16" fill="white"/>
</clipPath>
</defs>
</svg>
