<svg width="16" height="16" viewBox="0 0 16 16" fill="none" xmlns="http://www.w3.org/2000/svg">
<g clip-path="url(#clip0_383_4456)">
<path d="M14.0481 4.80792C14.4748 5.32125 14.6881 5.98059 14.6415 6.64725C14.6215 7.10059 14.4615 7.54725 14.1948 7.92059H14.1941C13.9608 8.20725 14.0141 8.62725 14.3008 8.85392C14.5808 9.07392 14.9875 9.03392 15.2208 8.75392C15.7008 8.12725 15.9675 7.35392 15.9741 6.56725C16.0475 4.49392 14.4741 2.73392 12.4075 2.58059V2.57392C10.9881 0.120586 7.85479 -0.719414 5.40146 0.687252C4.14813 1.40059 3.26146 2.61392 2.95479 4.02059C2.93479 4.08725 2.87479 4.14725 2.80146 4.15392C1.19479 4.26059 -0.0452049 5.59392 -0.0452049 7.20059C-0.0652049 7.79392 0.0947951 8.38059 0.414795 8.89392C0.614795 9.20059 1.02813 9.28725 1.34146 9.08725C1.36813 9.06725 1.38813 9.04725 1.4148 9.02725C1.66146 8.81392 1.71479 8.45392 1.5348 8.18059C1.34813 7.88059 1.25479 7.54059 1.27479 7.19392V7.19325C1.26813 6.23992 2.04146 5.46659 2.99479 5.46659V5.46592C3.10813 5.46592 3.22813 5.47259 3.34813 5.49925C3.70813 5.57259 4.05479 5.33925 4.12813 4.97925C4.13479 4.93259 4.13479 4.89259 4.14146 4.85259C4.10146 4.13259 4.32146 3.43259 4.76146 2.86592C6.99479 0.305919 10.2621 1.18592 11.3508 3.48592C11.4575 3.72592 11.7041 3.87925 11.9775 3.86592C12.7441 3.82592 13.4908 4.15259 13.9908 4.74592L14.0481 4.80792Z" fill="black"/>
<path d="M1.41437 10.6668C1.33437 10.7201 1.32104 10.8201 1.38104 10.9001C1.4077 10.9401 1.46104 10.9668 1.51437 10.9668H14.5144C14.601 10.9661 14.681 10.8868 14.681 10.8001C14.681 10.7468 14.6544 10.6935 14.6144 10.6668L12.521 9.10013C12.401 9.01346 12.261 8.9668 12.121 8.9668H3.89437C3.7477 8.9668 3.6077 9.01346 3.49437 9.10013L1.41437 10.6668Z" fill="black"/>
<path d="M15.0156 11.9609H1.01562C0.462292 11.9609 0.015625 12.4076 0.015625 12.9609V14.9609C0.015625 15.5076 0.462292 15.9609 1.01562 15.9609H15.0156C15.5623 15.9609 16.0156 15.5076 16.0156 14.9609V12.9609C16.0156 12.4076 15.5623 11.9609 15.0156 11.9609ZM13.349 14.9609C12.7956 14.9609 12.349 14.5076 12.349 13.9609C12.349 13.4076 12.7956 12.9609 13.349 12.9609C13.8956 12.9609 14.349 13.4076 14.349 13.9609C14.349 14.5076 13.8956 14.9609 13.349 14.9609Z" fill="black"/>
</g>
<defs>
<clipPath id="clip0_383_4456">
<rect width="16" height="16" fill="white"/>
</clipPath>
</defs>
</svg>
