<svg width="24" height="24" viewBox="0 0 24 24" fill="none" xmlns="http://www.w3.org/2000/svg">
<g id="arrows / circles / miniplayer/skipbackward">
<path id="Combined Shape" d="M12.6213 2.79289C13.0118 3.18342 13.0118 3.81658 12.6213 4.20711L10.8284 6H12C16.4183 6 20 9.58172 20 14C20 18.4183 16.4183 22 12 22C7.58172 22 4 18.4183 4 14C4 13.4477 4.44771 13 5 13C5.55229 13 6 13.4477 6 14C6 17.3137 8.68629 20 12 20C15.3137 20 18 17.3137 18 14C18 10.6863 15.3137 8 12 8H10.8284L12.6213 9.79289C13.0118 10.1834 13.0118 10.8166 12.6213 11.2071C12.2308 11.5976 11.5976 11.5976 11.2071 11.2071L6.99997 7L11.2071 2.79289C11.5976 2.40237 12.2308 2.40237 12.6213 2.79289Z" fill="#03A9F4"/>
</g>
</svg>
