<svg width="153" height="36" viewBox="0 0 153 36" fill="none" xmlns="http://www.w3.org/2000/svg">
<rect width="153" height="36" rx="18" fill="#F43E37"/>
<path fill-rule="evenodd" clip-rule="evenodd" d="M5.14307 17.9997C5.14307 10.8989 10.8994 5.14258 18.0002 5.14258C25.101 5.14258 30.8573 10.8989 30.8573 17.9997H27.6431C27.6431 12.6741 23.3258 8.35686 18.0002 8.35686C12.6746 8.35686 8.35735 12.6741 8.35735 17.9997C8.35735 23.3253 12.6746 27.6426 18.0002 27.6426V30.8569C10.8994 30.8569 5.14307 25.1005 5.14307 17.9997ZM18.0002 25.714C13.7397 25.714 10.2859 22.2602 10.2859 17.9997C10.2859 13.7392 13.7397 10.2854 18.0002 10.2854C22.2607 10.2854 25.7145 13.7392 25.7145 17.9997H22.9093C22.9093 15.2885 20.7114 13.0906 18.0002 13.0906C15.289 13.0906 13.0911 15.2885 13.0911 17.9997C13.0911 20.7109 15.289 22.9088 18.0002 22.9088V25.714Z" fill="white"/>
<path d="M42.153 23.3574V11.8827H46.5743C48.8963 11.8827 50.4787 13.4174 50.4787 15.7155V15.7314C50.4787 18.0216 48.8963 19.5643 46.5743 19.5643H44.2046V23.3574H42.153ZM46.0654 13.5605H44.2046V17.9103H46.0654C47.5365 17.9103 48.3953 17.1151 48.3953 15.7394V15.7235C48.3953 14.3478 47.5365 13.5605 46.0654 13.5605ZM55.1943 23.5244C52.7132 23.5244 51.1149 21.8704 51.1149 19.1429V19.127C51.1149 16.4233 52.7371 14.7533 55.1863 14.7533C57.6435 14.7533 59.2736 16.4074 59.2736 19.127V19.1429C59.2736 21.8783 57.6673 23.5244 55.1943 23.5244ZM55.2022 21.9261C56.4507 21.9261 57.2538 20.9082 57.2538 19.1429V19.127C57.2538 17.3696 56.4427 16.3597 55.1863 16.3597C53.9538 16.3597 53.1347 17.3775 53.1347 19.127V19.1429C53.1347 20.9162 53.9378 21.9261 55.2022 21.9261ZM64.2675 23.5244C61.7626 23.5244 60.1961 21.8386 60.1961 19.1349V19.127C60.1961 16.4392 61.7865 14.7533 64.2436 14.7533C66.4623 14.7533 67.8459 16.1609 67.9652 17.8467L67.9731 17.9103H66.1044L66.0885 17.8387C65.9215 17.0197 65.3172 16.3597 64.2675 16.3597C63.019 16.3597 62.2159 17.4173 62.2159 19.1429V19.1508C62.2159 20.9082 63.027 21.9261 64.2755 21.9261C65.2774 21.9261 65.9136 21.3297 66.0965 20.447L66.1124 20.3754H67.9811L67.9731 20.4311C67.8221 22.1885 66.3986 23.5244 64.2675 23.5244ZM69.2534 23.3574V11.8827H71.2335V18.4272H71.2732L74.4222 14.9283H76.7124L73.3726 18.5544L76.8476 23.3574H74.5654L71.9014 19.7313L71.2335 20.4311V23.3574H69.2534ZM80.919 23.5244C78.3903 23.5244 76.8635 21.8465 76.8635 19.1667V19.1588C76.8635 16.5028 78.4141 14.7533 80.8236 14.7533C83.233 14.7533 84.728 16.4471 84.728 18.9918V19.6279H78.8276C78.8594 21.107 79.6705 21.9817 80.9588 21.9817C81.9448 21.9817 82.5889 21.4569 82.7798 20.8923L82.7957 20.8366H84.6485L84.6246 20.9241C84.3622 22.2203 83.1217 23.5244 80.919 23.5244ZM80.8474 16.304C79.7978 16.304 79.0105 17.0117 78.8515 18.3079H82.8036C82.6605 16.972 81.8971 16.304 80.8474 16.304ZM89.1414 23.5244C87.376 23.5244 86.5411 22.8087 86.5411 21.0752V16.4551H85.3483V14.9283H86.5411V12.7892H88.5529V14.9283H90.1195V16.4551H88.5529V20.9082C88.5529 21.7352 88.9187 21.9976 89.6424 21.9976C89.8332 21.9976 89.9843 21.9738 90.1195 21.9658V23.4528C89.8889 23.4847 89.539 23.5244 89.1414 23.5244ZM99.9323 23.5562C96.6322 23.5562 94.5488 21.2819 94.5488 17.6161V17.6081C94.5488 13.9422 96.6401 11.6839 99.9323 11.6839C102.572 11.6839 104.513 13.3299 104.815 15.6678L104.823 15.7474H102.811L102.771 15.5963C102.437 14.2842 101.427 13.4651 99.9323 13.4651C97.9284 13.4651 96.6481 15.0635 96.6481 17.6081V17.6161C96.6481 20.1687 97.9363 21.775 99.9323 21.775C101.395 21.775 102.421 20.9877 102.795 19.5723L102.819 19.4927H104.831L104.815 19.5723C104.521 21.9261 102.572 23.5562 99.9323 23.5562ZM108.648 23.5006C106.962 23.5006 105.825 22.4588 105.825 20.9559V20.94C105.825 19.445 106.986 18.5465 109.029 18.4192L111.232 18.284V17.7035C111.232 16.8527 110.675 16.3358 109.673 16.3358C108.735 16.3358 108.163 16.7732 108.035 17.3934L108.019 17.465H106.183L106.19 17.3696C106.31 15.8746 107.606 14.7533 109.745 14.7533C111.852 14.7533 113.212 15.8666 113.212 17.5604V23.3574H111.232V22.0612H111.184C110.699 22.9439 109.761 23.5006 108.648 23.5006ZM107.797 20.8764C107.797 21.5682 108.369 21.9897 109.236 21.9897C110.373 21.9897 111.232 21.2342 111.232 20.2323V19.5961L109.308 19.7154C108.33 19.779 107.797 20.2005 107.797 20.8684V20.8764ZM118.103 23.5244C115.892 23.5244 114.628 22.4747 114.453 20.9082L114.445 20.8366H116.393L116.409 20.9082C116.56 21.6318 117.109 22.0612 118.111 22.0612C119.073 22.0612 119.653 21.6716 119.653 21.0513V21.0434C119.653 20.5345 119.359 20.2482 118.484 20.0494L117.085 19.7393C115.47 19.3814 114.659 18.5942 114.659 17.3457V17.3378C114.659 15.7951 116.003 14.7533 118.039 14.7533C120.138 14.7533 121.363 15.9064 121.434 17.3616L121.442 17.4491H119.598L119.59 17.3855C119.502 16.7095 118.961 16.2165 118.039 16.2165C117.164 16.2165 116.616 16.6221 116.616 17.2423V17.2503C116.616 17.7354 116.942 18.0534 117.816 18.2522L119.224 18.5624C120.965 18.952 121.641 19.6359 121.641 20.8605V20.8684C121.641 22.4588 120.17 23.5244 118.103 23.5244ZM126.039 23.5244C124.273 23.5244 123.438 22.8087 123.438 21.0752V16.4551H122.246V14.9283H123.438V12.7892H125.45V14.9283H127.017V16.4551H125.45V20.9082C125.45 21.7352 125.816 21.9976 126.54 21.9976C126.731 21.9976 126.882 21.9738 127.017 21.9658V23.4528C126.786 23.4847 126.436 23.5244 126.039 23.5244ZM131.669 23.5244C129.458 23.5244 128.194 22.4747 128.019 20.9082L128.011 20.8366H129.959L129.975 20.9082C130.126 21.6318 130.675 22.0612 131.677 22.0612C132.639 22.0612 133.219 21.6716 133.219 21.0513V21.0434C133.219 20.5345 132.925 20.2482 132.05 20.0494L130.651 19.7393C129.037 19.3814 128.225 18.5942 128.225 17.3457V17.3378C128.225 15.7951 129.569 14.7533 131.605 14.7533C133.704 14.7533 134.929 15.9064 135.001 17.3616L135.009 17.4491H133.164L133.156 17.3855C133.068 16.7095 132.528 16.2165 131.605 16.2165C130.73 16.2165 130.182 16.6221 130.182 17.2423V17.2503C130.182 17.7354 130.508 18.0534 131.382 18.2522L132.79 18.5624C134.531 18.952 135.207 19.6359 135.207 20.8605V20.8684C135.207 22.4588 133.736 23.5244 131.669 23.5244Z" fill="white"/>
</svg>
