<svg width="96" height="96" viewBox="0 0 96 96" fill="none" xmlns="http://www.w3.org/2000/svg">
<path d="M42.2825 1.93658C45.6607 -0.645527 50.3393 -0.645527 53.7175 1.93658C55.9632 3.65306 58.8556 4.27058 61.6023 3.61994C65.734 2.64119 70.0081 4.55254 72.0487 8.29153C73.4052 10.7771 75.7974 12.5228 78.5701 13.0505C82.741 13.8444 85.8716 17.3366 86.2216 21.586C86.4543 24.4108 87.9328 26.983 90.2521 28.5978C93.7409 31.0269 95.1867 35.4962 93.7857 39.5212C92.8544 42.1968 93.1635 45.1506 94.6283 47.5733C96.8318 51.2178 96.3428 55.8913 93.433 58.996C91.4987 61.0598 90.5849 63.8845 90.942 66.6962C91.4793 70.9258 89.14 74.9955 85.2245 76.643C82.6217 77.7382 80.6431 79.9454 79.8307 82.6599C78.6087 86.7433 74.8237 89.5054 70.5796 89.4109C67.7583 89.3481 65.0569 90.5561 63.2156 92.704C60.4457 95.9352 55.8693 96.9122 52.0305 95.092C49.4785 93.882 46.5215 93.882 43.9696 95.092C40.1307 96.9122 35.5543 95.9352 32.7844 92.704C30.9431 90.5561 28.2417 89.3481 25.4204 89.4109C21.1763 89.5054 17.3913 86.7433 16.1693 82.6599C15.3569 79.9454 13.3783 77.7382 10.7755 76.643C6.86003 74.9955 4.52074 70.9258 5.05796 66.6962C5.41509 63.8845 4.50132 61.0598 2.56701 58.996C-0.34278 55.8913 -0.831826 51.2178 1.37172 47.5733C2.83655 45.1506 3.14564 42.1968 2.21431 39.5212C0.813314 35.4962 2.25908 31.0269 5.74793 28.5978C8.06718 26.983 9.5457 24.4108 9.77838 21.586C10.1284 17.3366 13.259 13.8444 17.4299 13.0505C20.2026 12.5228 22.5948 10.7771 23.9513 8.29153C25.9919 4.55254 30.266 2.64119 34.3977 3.61994C37.1444 4.27058 40.0368 3.65306 42.2825 1.93658Z" fill="#4B800E"/>
</svg>
