<svg width="25" height="25" viewBox="0 0 25 25" fill="none" xmlns="http://www.w3.org/2000/svg">
<g id="shuffle">
<path id="shuffle_2" d="M2.96094 16.5234C2.96094 16.0703 3.3125 15.7422 3.79688 15.7422H5.57812C6.44531 15.7422 7.00781 15.4375 7.67969 14.6406L9.57812 12.3828L7.67969 10.125C7.00781 9.32812 6.39844 9.02344 5.52344 9.02344H3.79688C3.3125 9.02344 2.96094 8.69531 2.96094 8.24219C2.96094 7.78906 3.3125 7.46875 3.79688 7.46875H5.58594C6.92188 7.46875 7.76562 7.85938 8.6875 8.94531L10.5781 11.1953L12.3984 9.03125C13.3906 7.84375 14.2422 7.46094 15.6328 7.46094H17.1875V5.61719C17.1875 5.23438 17.4141 5.02344 17.7891 5.02344C17.9609 5.02344 18.1172 5.07812 18.25 5.1875L21.3125 7.74219C21.6094 8 21.6094 8.375 21.3125 8.61719L18.25 11.1719C18.1172 11.2734 17.9609 11.3359 17.7891 11.3359C17.4141 11.3359 17.1875 11.1172 17.1875 10.7422V9.02344H15.625C14.7188 9.02344 14.1719 9.3125 13.4922 10.1172L11.5781 12.3828L13.4844 14.6406C14.1484 15.4375 14.75 15.7422 15.6719 15.7422H17.1875V14.0547C17.1875 13.6719 17.4141 13.4609 17.7891 13.4609C17.9609 13.4609 18.1172 13.5156 18.25 13.625L21.3125 16.1797C21.6094 16.4375 21.6094 16.8125 21.3125 17.0547L18.25 19.6094C18.1172 19.7109 17.9609 19.7734 17.7891 19.7734C17.4141 19.7734 17.1875 19.5547 17.1875 19.1797V17.2969H15.625C14.2812 17.2969 13.3906 16.9062 12.4453 15.7812L10.5781 13.5703L8.6875 15.8203C7.76562 16.9062 6.97656 17.2969 5.63281 17.2969H3.79688C3.3125 17.2969 2.96094 16.9766 2.96094 16.5234Z" fill="url(#paint0_linear_148_3607)"/>
</g>
<defs>
<linearGradient id="paint0_linear_148_3607" x1="4.61962" y1="5.02344" x2="21.3466" y2="6.84584" gradientUnits="userSpaceOnUse">
<stop stop-color="#FED745"/>
<stop offset="1" stop-color="#FEB525"/>
</linearGradient>
</defs>
</svg>
