<svg width="24" height="24" viewBox="0 0 24 24" fill="none" xmlns="http://www.w3.org/2000/svg">
<g id="arrows / circles / tick-circle-ol">
<path id="Oval 4" opacity="0.5" d="M12 0C18.6274 0 24 5.37258 24 12C24 18.6274 18.6274 24 12 24C5.37258 24 0 18.6274 0 12C1.93277e-07 5.37258 5.37258 1.93283e-07 12 0ZM12 2C6.47715 2 2 6.47715 2 12C2 17.5228 6.47715 22 12 22C17.5228 22 22 17.5228 22 12C22 6.47715 17.5228 2 12 2Z" fill="#03A9F4"/>
<path id="Path 2" d="M15.2366 8.35408C15.5934 7.93247 16.2243 7.87989 16.6459 8.23663C17.0675 8.59338 17.1201 9.22436 16.7634 9.64596L10.5614 16.9756L6.79289 13.2071C6.40237 12.8166 6.40237 12.1834 6.79289 11.7929C7.18342 11.4024 7.81658 11.4024 8.20711 11.7929L10.4386 14.0244L15.2366 8.35408Z" fill="#03A9F4"/>
</g>
</svg>
